<?xml version="1.0" standalone="no"?><!DOCTYPE svg PUBLIC "-//W3C//DTD SVG 1.1//EN" "http://www.w3.org/Graphics/SVG/1.1/DTD/svg11.dtd"><svg t="1587806054158" class="icon" viewBox="0 0 1024 1024" version="1.1" xmlns="http://www.w3.org/2000/svg" p-id="64621" xmlns:xlink="http://www.w3.org/1999/xlink" width="200" height="200"><defs><style type="text/css"></style></defs><path d="M929.185185 682.666667l-56.888889-31.604939c12.641975-44.246914 18.962963-94.814815 18.962963-139.061728s-6.320988-94.814815-25.28395-132.740741l56.888889-31.604938c18.962963-12.641975 31.604938-31.604938 31.604938-56.888889 0-12.641975 0-18.962963-6.320988-31.604938-18.962963-31.604938-56.888889-37.925926-88.493827-25.283951l-56.888889 31.604938C745.876543 195.950617 670.024691 151.703704 575.209877 132.740741V63.209877c0-37.925926-31.604938-63.209877-63.209877-63.209877s-63.209877 31.604938-63.209877 63.209877V132.740741c-94.814815 18.962963-170.666667 63.209877-227.555555 132.74074l-63.209877-31.604938c-6.320988-6.320988-18.962963-6.320988-31.604938-6.320987-18.962963 0-37.925926 6.320988-50.567901 31.604938-18.962963 25.283951-6.320988 69.530864 18.962963 82.172839l56.888889 31.604939C139.061728 417.185185 132.740741 467.753086 132.740741 512s6.320988 94.814815 25.28395 132.740741l-56.888889 31.604938c-18.962963 12.641975-31.604938 31.604938-31.604938 56.888889 0 12.641975 0 18.962963 6.320988 31.604938 18.962963 31.604938 56.888889 37.925926 88.493827 25.283951l56.888889-31.604938C278.123457 828.049383 353.975309 872.296296 448.790123 891.259259v69.530864c0 37.925926 31.604938 63.209877 63.209877 63.209877s63.209877-31.604938 63.209877-63.209877V891.259259c94.814815-12.641975 170.666667-63.209877 227.555555-132.74074l56.888889 31.604938c12.641975 6.320988 18.962963 6.320988 31.604938 6.320987 18.962963 0 44.246914-12.641975 56.888889-31.604938 18.962963-25.283951 6.320988-69.530864-18.962963-82.172839z m-176.987654-101.135803c-12.641975 44.246914-31.604938 82.17284-63.209877 107.45679-31.604938 31.604938-69.530864 56.888889-113.777777 69.530865-18.962963 6.320988-44.246914 6.320988-63.209877 6.320987s-44.246914 0-63.209877-6.320987c-44.246914-12.641975-82.17284-31.604938-113.777777-69.530865-31.604938-31.604938-50.567901-69.530864-63.209877-107.45679C265.481481 556.246914 259.160494 537.283951 259.160494 512s0-44.246914 6.320987-69.530864c12.641975-44.246914 31.604938-82.17284 63.209877-107.45679 37.925926-31.604938 75.851852-56.888889 120.098765-69.530865 18.962963-6.320988 44.246914-6.320988 63.209877-6.320987s44.246914 0 63.209877 6.320987c44.246914 12.641975 82.17284 31.604938 113.777777 69.530865 31.604938 31.604938 50.567901 69.530864 63.209877 107.45679 6.320988 25.283951 12.641975 44.246914 12.641975 69.530864s-6.320988 44.246914-12.641975 69.530864zM575.209877 512c0 37.925926-25.283951 63.209877-63.209877 63.209877s-63.209877-25.283951-63.209877-63.209877 25.283951-63.209877 63.209877-63.209877 63.209877 25.283951 63.209877 63.209877z" p-id="64622"></path></svg>