<?xml version="1.0" standalone="no"?><!DOCTYPE svg PUBLIC "-//W3C//DTD SVG 1.1//EN" "http://www.w3.org/Graphics/SVG/1.1/DTD/svg11.dtd"><svg t="1587801608348" class="icon" viewBox="0 0 1031 1024" version="1.1" xmlns="http://www.w3.org/2000/svg" p-id="29088" xmlns:xlink="http://www.w3.org/1999/xlink" width="201.3671875" height="200"><defs><style type="text/css"></style></defs><path d="M16 0v1024" fill="" p-id="29089"></path><path d="M32 0v1024" fill="" p-id="29090"></path><path d="M48 0v1024" fill="" p-id="29091"></path><path d="M64 0v1024" fill="" p-id="29092"></path><path d="M80 0v1024" fill="" p-id="29093"></path><path d="M96 0v1024" fill="" p-id="29094"></path><path d="M112 0v1024" fill="" p-id="29095"></path><path d="M128 0v1024" fill="" p-id="29096"></path><path d="M144 0v1024" fill="" p-id="29097"></path><path d="M160 0v1024" fill="" p-id="29098"></path><path d="M176 0v1024" fill="" p-id="29099"></path><path d="M192 0v1024" fill="" p-id="29100"></path><path d="M208 0v1024" fill="" p-id="29101"></path><path d="M224 0v1024" fill="" p-id="29102"></path><path d="M240 0v1024" fill="" p-id="29103"></path><path d="M256 0v1024" fill="" p-id="29104"></path><path d="M272 0v1024" fill="" p-id="29105"></path><path d="M288 0v1024" fill="" p-id="29106"></path><path d="M304 0v1024" fill="" p-id="29107"></path><path d="M320 0v1024" fill="" p-id="29108"></path><path d="M336 0v1024" fill="" p-id="29109"></path><path d="M352 0v1024" fill="" p-id="29110"></path><path d="M368 0v1024" fill="" p-id="29111"></path><path d="M384 0v1024" fill="" p-id="29112"></path><path d="M400 0v1024" fill="" p-id="29113"></path><path d="M416 0v1024" fill="" p-id="29114"></path><path d="M432 0v1024" fill="" p-id="29115"></path><path d="M448 0v1024" fill="" p-id="29116"></path><path d="M464 0v1024" fill="" p-id="29117"></path><path d="M480 0v1024" fill="" p-id="29118"></path><path d="M496 0v1024" fill="" p-id="29119"></path><path d="M512 0v1024" fill="" p-id="29120"></path><path d="M528 0v1024" fill="" p-id="29121"></path><path d="M544 0v1024" fill="" p-id="29122"></path><path d="M560 0v1024" fill="" p-id="29123"></path><path d="M576 0v1024" fill="" p-id="29124"></path><path d="M592 0v1024" fill="" p-id="29125"></path><path d="M608 0v1024" fill="" p-id="29126"></path><path d="M624 0v1024" fill="" p-id="29127"></path><path d="M640 0v1024" fill="" p-id="29128"></path><path d="M656 0v1024" fill="" p-id="29129"></path><path d="M672 0v1024" fill="" p-id="29130"></path><path d="M688 0v1024" fill="" p-id="29131"></path><path d="M704 0v1024" fill="" p-id="29132"></path><path d="M720 0v1024" fill="" p-id="29133"></path><path d="M736 0v1024" fill="" p-id="29134"></path><path d="M752 0v1024" fill="" p-id="29135"></path><path d="M768 0v1024" fill="" p-id="29136"></path><path d="M784 0v1024" fill="" p-id="29137"></path><path d="M800 0v1024" fill="" p-id="29138"></path><path d="M816 0v1024" fill="" p-id="29139"></path><path d="M832 0v1024" fill="" p-id="29140"></path><path d="M848 0v1024" fill="" p-id="29141"></path><path d="M864 0v1024" fill="" p-id="29142"></path><path d="M880 0v1024" fill="" p-id="29143"></path><path d="M896 0v1024" fill="" p-id="29144"></path><path d="M912 0v1024" fill="" p-id="29145"></path><path d="M928 0v1024" fill="" p-id="29146"></path><path d="M944 0v1024" fill="" p-id="29147"></path><path d="M960 0v1024" fill="" p-id="29148"></path><path d="M976 0v1024" fill="" p-id="29149"></path><path d="M992 0v1024" fill="" p-id="29150"></path><path d="M1008 0v1024" fill="" p-id="29151"></path><path d="M1024 0v1024" fill="" p-id="29152"></path><path d="M0 16h1031" fill="" p-id="29153"></path><path d="M0 32h1031" fill="" p-id="29154"></path><path d="M0 48h1031" fill="" p-id="29155"></path><path d="M0 64h1031" fill="" p-id="29156"></path><path d="M0 80h1031" fill="" p-id="29157"></path><path d="M0 96h1031" fill="" p-id="29158"></path><path d="M0 112h1031" fill="" p-id="29159"></path><path d="M0 128h1031" fill="" p-id="29160"></path><path d="M0 144h1031" fill="" p-id="29161"></path><path d="M0 160h1031" fill="" p-id="29162"></path><path d="M0 176h1031" fill="" p-id="29163"></path><path d="M0 192h1031" fill="" p-id="29164"></path><path d="M0 208h1031" fill="" p-id="29165"></path><path d="M0 224h1031" fill="" p-id="29166"></path><path d="M0 240h1031" fill="" p-id="29167"></path><path d="M0 256h1031" fill="" p-id="29168"></path><path d="M0 272h1031" fill="" p-id="29169"></path><path d="M0 288h1031" fill="" p-id="29170"></path><path d="M0 304h1031" fill="" p-id="29171"></path><path d="M0 320h1031" fill="" p-id="29172"></path><path d="M0 336h1031" fill="" p-id="29173"></path><path d="M0 352h1031" fill="" p-id="29174"></path><path d="M0 368h1031" fill="" p-id="29175"></path><path d="M0 384h1031" fill="" p-id="29176"></path><path d="M0 400h1031" fill="" p-id="29177"></path><path d="M0 416h1031" fill="" p-id="29178"></path><path d="M0 432h1031" fill="" p-id="29179"></path><path d="M0 448h1031" fill="" p-id="29180"></path><path d="M0 464h1031" fill="" p-id="29181"></path><path d="M0 480h1031" fill="" p-id="29182"></path><path d="M0 496h1031" fill="" p-id="29183"></path><path d="M0 512h1031" fill="" p-id="29184"></path><path d="M0 528h1031" fill="" p-id="29185"></path><path d="M0 544h1031" fill="" p-id="29186"></path><path d="M0 560h1031" fill="" p-id="29187"></path><path d="M0 576h1031" fill="" p-id="29188"></path><path d="M0 592h1031" fill="" p-id="29189"></path><path d="M0 608h1031" fill="" p-id="29190"></path><path d="M0 624h1031" fill="" p-id="29191"></path><path d="M0 640h1031" fill="" p-id="29192"></path><path d="M0 656h1031" fill="" p-id="29193"></path><path d="M0 672h1031" fill="" p-id="29194"></path><path d="M0 688h1031" fill="" p-id="29195"></path><path d="M0 704h1031" fill="" p-id="29196"></path><path d="M0 720h1031" fill="" p-id="29197"></path><path d="M0 736h1031" fill="" p-id="29198"></path><path d="M0 752h1031" fill="" p-id="29199"></path><path d="M0 768h1031" fill="" p-id="29200"></path><path d="M0 784h1031" fill="" p-id="29201"></path><path d="M0 800h1031" fill="" p-id="29202"></path><path d="M0 816h1031" fill="" p-id="29203"></path><path d="M0 832h1031" fill="" p-id="29204"></path><path d="M0 848h1031" fill="" p-id="29205"></path><path d="M0 864h1031" fill="" p-id="29206"></path><path d="M0 880h1031" fill="" p-id="29207"></path><path d="M0 896h1031" fill="" p-id="29208"></path><path d="M0 912h1031" fill="" p-id="29209"></path><path d="M0 928h1031" fill="" p-id="29210"></path><path d="M0 944h1031" fill="" p-id="29211"></path><path d="M0 960h1031" fill="" p-id="29212"></path><path d="M0 976h1031" fill="" p-id="29213"></path><path d="M0 992h1031" fill="" p-id="29214"></path><path d="M0 1008h1031" fill="" p-id="29215"></path><path d="M794.335 787.515v35.652c0 42.14-35.652 77.792-77.792 77.792H94.209c-42.14 0-77.792-35.652-77.792-77.792v-35.652c0-93.996 110.207-152.34 213.927-197.723l9.724-4.862c8.106-3.244 16.204-3.244 24.31 1.618 42.14 27.554 89.134 42.14 139.379 42.14s98.858-16.204 139.379-42.14c8.106-4.862 16.204-4.862 24.31-1.618l9.724 4.862c106.964 45.376 217.171 102.102 217.171 197.723zM405.376 123.041c106.964 0 192.861 95.621 192.861 213.927S512.34 550.895 405.376 550.895c-106.964 0-192.861-95.621-192.861-213.927s85.897-213.927 192.861-213.927z m466.751 379.235v142.942h-58.83V502.276H670.841v-58.344h142.456V305.365h58.83v138.567h142.456v58.344H872.127z" fill="#666666" p-id="29216"></path></svg>