<?xml version="1.0" standalone="no"?><!DOCTYPE svg PUBLIC "-//W3C//DTD SVG 1.1//EN" "http://www.w3.org/Graphics/SVG/1.1/DTD/svg11.dtd"><svg t="1587804506159" class="icon" viewBox="0 0 1024 1024" version="1.1" xmlns="http://www.w3.org/2000/svg" p-id="47888" xmlns:xlink="http://www.w3.org/1999/xlink" width="200" height="200"><defs><style type="text/css"></style></defs><path d="M17.92 655.729778c12.544 55.068444 38.542222 163.527111 64.512 217.742222 1.393778 2.702222 2.275556 5.376 3.584 7.623111 5.376 8.504889 14.336 14.336 25.088 14.336 3.072-0.113778 6.115556-0.711111 9.016889-1.792 0.853333-0.455111 1.792-0.455111 3.072-0.910222 35.896889-8.504889 73.528889-18.346667 98.190222-21.504 54.613333-7.168 303.786667 57.344 373.248 62.776889 69.489778 5.376 147.456-66.787556 198.513778-94.122667 51.086222-27.335111 214.215111-133.518222 214.215111-133.518222s8.049778-74.865778-79.36-55.153778c-87.324444 19.712-222.208 94.122667-222.208 94.122667s-97.28 29.582222-165.376 9.386666c-47.502222-13.852444-110.222222-34.958222-134.855111-59.562666-23.324444-23.324444-20.650667-46.592-0.938667-43.52 40.362667 6.286222 195.84 21.077333 238.392889 8.078222 42.154667-12.942222 65.905778-63.175111 47.502222-94.094222 0 0-55.068444-3.072-182.357333-31.345778-127.715556-28.273778-159.089778-47.985778-214.215111-23.751111-42.552889 18.830222-136.647111 74.837333-249.6 103.879111a34.360889 34.360889 0 0 0-26.424889 41.244444v0.085334z m917.304889-528.782222a62.151111 62.151111 0 0 0-62.293333-62.293334H460.259556a62.492444 62.492444 0 0 0-62.776889 62.293334c0 34.474667 27.818667 62.293333 62.293333 62.293333h412.700444a62.577778 62.577778 0 0 0 62.776889-62.293333h-0.056889z m0 224.938666c0-34.503111-27.818667-62.293333-62.293333-62.293333H460.259556c-34.56 0-62.293333 27.790222-62.293334 62.293333 0 34.531556 27.733333 62.293333 62.236445 62.293334h412.728889c34.048 0 62.293333-28.245333 62.293333-62.293334h-0.028445z" fill="#4290F7" fill-opacity=".8" p-id="47889"></path></svg>