<?xml version="1.0" standalone="no"?><!DOCTYPE svg PUBLIC "-//W3C//DTD SVG 1.1//EN" "http://www.w3.org/Graphics/SVG/1.1/DTD/svg11.dtd"><svg t="1587808442076" class="icon" viewBox="0 0 1024 1024" version="1.1" xmlns="http://www.w3.org/2000/svg" p-id="74970" xmlns:xlink="http://www.w3.org/1999/xlink" width="200" height="200"><defs><style type="text/css"></style></defs><path d="M591.658667 956.032H292.821333a21.333333 21.333333 0 0 1-21.333333-21.333333v-74.176c-25.6-20.672-88.64-73.621333-103.232-105.877334-13.504-29.952-4.864-66.965333 19.669333-84.202666 11.648-8.170667 40.042667-20.8 83.562667 5.866666v-297.6c-0.426667-3.754667-4.032-53.909333 21.717333-82.048 21.632-23.552 62.229333-24.661333 84.117334-0.832 25.664 27.925333 22.101333 79.616 21.610666 85.418667l0.042667 101.12c6.72-2.773333 14.101333-4.8 21.866667-4.117333a54.186667 54.186667 0 0 1 40.832 18.026666c3.648 3.989333 6.72 8.469333 9.344 13.290667 22.208-16.896 57.408-14.165333 76.885333 6.656 7.552 8.064 12.586667 17.984 15.872 27.989333a63.893333 63.893333 0 0 1 28.16-5.888c39.466667 0.554667 58.410667 32.149333 62.954667 48.768 0.490667 1.813333 0.746667 3.712 0.746666 5.610667v212.501333c0 5.546667-2.133333 10.837333-5.952 14.784l-37.376 38.784 0.661334 75.712a21.397333 21.397333 0 0 1-21.312 21.546667z m-277.504-42.666667h255.957333l-0.533333-62.912a21.290667 21.290667 0 0 1 5.952-14.997333l37.461333-38.869333v-200.32c-2.005333-4.842667-7.914667-15.082667-21.632-15.274667-15.296-1.365333-21.333333 14.677333-22.250667 17.642667a21.376 21.376 0 0 1-41.792-7.338667c0.661333-10.602667-1.045333-35.818667-10.624-45.994667-3.882667-4.117333-17.493333-4.544-21.418666-0.298666-5.909333 6.314667-8.789333 18.624-9.962667 29.589333 0.213333 10.24-0.341333 17.770667-0.533333 19.946667a21.333333 21.333333 0 0 1-21.248 19.498666h-0.192a21.333333 21.333333 0 0 1-21.098667-19.882666 148.864 148.864 0 0 1 0.384-21.418667c-0.661333-18.218667-4.266667-38.784-12.458667-47.701333-2.666667-2.922667-5.397333-3.989333-9.6-4.096a12.032 12.032 0 0 0-9.749333 4.117333c-7.232 7.893333-10.56 23.893333-11.797333 38.997333v29.653334c0 11.413333-8.96 20.8-20.352 21.290666-11.498667 1.408-21.184-7.957333-22.229334-19.328a214.336 214.336 0 0 1-0.085333-33.408v-182.762666c1.088-14.250667-0.192-43.648-10.453333-54.784-6.485333-6.954667-17.770667-3.029333-21.205334 0.810666-10.432 11.392-11.648 39.530667-10.602666 51.349334l0.085333 343.488a21.333333 21.333333 0 0 1-36.138667 15.338666c-33.834667-32.576-56.384-36.629333-65.514666-30.336-7.936 5.632-10.432 20.458667-5.333334 31.786667 9.002667 19.925333 63.232 68.330667 98.858667 96.341333 5.141333 4.074667 8.149333 10.24 8.149333 16.789334v63.082666z" p-id="74971"></path><path d="M810.432 188.010667h-725.333333c-11.776 0-21.333333 11.946667-21.333334 26.666666v160c0 14.72 9.557333 26.666667 21.333334 26.666667h190.442666v-53.333333H106.432v-106.666667h682.666667v106.666667H392.981333v53.333333H810.453333c11.776 0 21.333333-11.946667 21.333334-26.666667v-160c-0.021333-14.741333-9.557333-26.666667-21.354667-26.666666z" p-id="74972"></path></svg>