<?xml version="1.0" standalone="no"?><!DOCTYPE svg PUBLIC "-//W3C//DTD SVG 1.1//EN" "http://www.w3.org/Graphics/SVG/1.1/DTD/svg11.dtd"><svg t="1587800742625" class="icon" viewBox="0 0 1063 1024" version="1.1" xmlns="http://www.w3.org/2000/svg" p-id="18900" xmlns:xlink="http://www.w3.org/1999/xlink" width="207.6171875" height="200"><defs><style type="text/css"></style></defs><path d="M39.822222 0h1024v1024H39.822222z" fill="#4089FA" p-id="18901"></path><path d="M375.466667 847.644444l45.511111 17.066667c-5.688889 28.444444-17.066667 45.511111-34.133334 56.888889s-39.822222 17.066667-62.577777 17.066667c-34.133333 0-56.888889-11.377778-79.644445-34.133334-28.444444-17.066667-34.133333-51.2-34.133333-85.333333 0-39.822222 11.377778-73.955556 34.133333-96.711111 22.755556-22.755556 51.2-34.133333 85.333334-34.133333 28.444444 0 56.888889 11.377778 73.955555 28.444444 11.377778 11.377778 17.066667 22.755556 22.755556 45.511111l-51.2 11.377778c-5.688889-11.377778-11.377778-22.755556-17.066667-28.444445s-22.755556-11.377778-34.133333-11.377777c-17.066667 0-34.133333 5.688889-45.511111 17.066666s-17.066667 34.133333-17.066667 62.577778c0 28.444444 5.688889 51.2 17.066667 68.266667s22.755556 17.066667 45.511111 17.066666c11.377778 0 22.755556-5.688889 34.133333-11.377777s11.377778-22.755556 17.066667-39.822223zM682.666667 938.666667h-51.2l-22.755556-56.888889H512l-22.755556 56.888889H438.044444l96.711112-244.622223h51.2l96.711111 244.622223z m-91.022223-96.711111l-34.133333-91.022223-34.133333 91.022223h68.266666zM711.111111 694.044444h91.022222c22.755556 0 34.133333 0 45.511111 5.688889 17.066667 5.688889 28.444444 11.377778 34.133334 22.755556s17.066667 22.755556 22.755555 39.822222 5.688889 34.133333 5.688889 56.888889 0 39.822222-5.688889 51.2c-5.688889 17.066667-17.066667 34.133333-28.444444 45.511111-11.377778 5.688889-22.755556 17.066667-34.133333 17.066667-11.377778 5.688889-22.755556 5.688889-45.511112 5.688889h-91.022222v-244.622223z m45.511111 39.822223v159.288889h62.577778c5.688889 0 17.066667-5.688889 17.066667-11.377778s11.377778-11.377778 11.377777-22.755556 5.688889-28.444444 5.688889-45.511111 0-34.133333-5.688889-45.511111-5.688889-17.066667-11.377777-22.755556-5.688889-5.688889-17.066667-5.688888h-62.577778z" fill="#FFFFFB" p-id="18902"></path><path d="M312.888889 0h56.888889v637.155556h-56.888889z" fill="#FFFFFB" p-id="18903"></path><path d="M0 329.955556H1063.822222v56.888888H0z" fill="#FFFFFB" p-id="18904"></path><path d="M182.044444 187.733333v341.333334h341.333334v-341.333334h-341.333334z m284.444445 284.444445h-227.555556v-227.555556h227.555556v227.555556z" fill="#FFFFFB" p-id="18905"></path></svg>