<?xml version="1.0" standalone="no"?><!DOCTYPE svg PUBLIC "-//W3C//DTD SVG 1.1//EN" "http://www.w3.org/Graphics/SVG/1.1/DTD/svg11.dtd"><svg t="1587802479949" class="icon" viewBox="0 0 1024 1024" version="1.1" xmlns="http://www.w3.org/2000/svg" p-id="34956" xmlns:xlink="http://www.w3.org/1999/xlink" width="200" height="200"><defs><style type="text/css"></style></defs><path d="M512 56.888889a455.111111 455.111111 0 1 0 0 910.222222A455.111111 455.111111 0 0 0 512 56.888889zM170.666667 512c0-73.614222 23.665778-141.710222 63.488-197.518222l475.363555 475.363555A338.944 338.944 0 0 1 512 853.333333c-188.245333 0-341.333333-153.088-341.333333-341.333333z m619.178666 197.518222L314.481778 234.154667A338.944 338.944 0 0 1 512 170.666667c188.245333 0 341.333333 153.088 341.333333 341.333333a338.944 338.944 0 0 1-63.488 197.518222z" fill="" p-id="34957"></path></svg>