<?xml version="1.0" standalone="no"?><!DOCTYPE svg PUBLIC "-//W3C//DTD SVG 1.1//EN" "http://www.w3.org/Graphics/SVG/1.1/DTD/svg11.dtd"><svg t="1589512132014" class="icon" viewBox="0 0 1024 1024" version="1.1" xmlns="http://www.w3.org/2000/svg" p-id="6889" xmlns:xlink="http://www.w3.org/1999/xlink" width="16" height="16"><defs><style type="text/css"></style></defs><path d="M371.662428 650.162677h167.496351l35.156574-212.4547c2.115885-12.79647 14.187391-21.46865 27.004935-19.335904 12.794363 2.115885 21.453897 14.208465 19.338012 27.002828l-33.887885 204.787776h65.550297l0.010537-309.610507H371.672966l-0.010538 309.610507zM324.704104 0H73.984334C50.671661 0 31.706669 18.962885 31.706669 42.275558v251.303535h61.183649L53.200608 121.134437c-2.910396-12.642626 4.979917-25.24521 17.620435-28.157714 12.65527-2.914611 25.24521 4.982025 28.153499 17.620436l42.117499 182.979827h183.601526L324.704104 0zM121.180801 650.162677h34.397889l-47.430394-183.968223c-3.239159-12.560435 4.318176-25.367442 16.882826-28.606602 12.558328-3.241267 25.365335 4.320284 28.604494 16.880719l50.450378 195.696214h120.603358l0.006322-309.610508H31.706669v309.610508H73.655571l-37.691842-165.837784c-2.874569-12.648948 5.049463-25.232565 17.698411-28.107134 12.636303-2.874569 25.232565 5.049463 28.105027 17.698411l39.413634 176.244399zM73.984334 1024H950.019881c23.308458 0 42.275558-18.964992 42.275558-42.275558V697.135754H31.708776v284.590795c-0.002107 23.308458 18.962885 42.273451 42.275558 42.273451z m406.698877-241.910606h62.633578c12.969281 0 23.487592 10.514096 23.487592 23.485484s-10.516203 23.487592-23.487592 23.487592h-62.633578c-12.969281 0-23.485484-10.516203-23.485485-23.487592 0.002107-12.969281 10.516203-23.485484 23.485485-23.485484zM371.675073 0h280.660391v293.579093H371.675073zM749.147757 427.689134c12.853371-1.841916 24.743635 7.062083 26.593981 19.898595l29.15454 202.572841h187.397053V340.55217H699.300111l-0.00843 309.610507h58.146806l-28.193541-195.879562c-1.846131-12.840727 7.062083-24.745743 19.902811-26.593981zM950.017773 0.002107L699.308541 0l-0.010538 293.579093 187.316971 0.002108 17.913372-152.2742c1.519475-12.882876 13.209531-22.088241 26.071332-20.581411 12.882876 1.517368 22.098779 13.188457 20.581411 26.071333l-17.266383 146.784278h58.378625V42.275558c0-23.310566-18.9671-42.273451-42.275558-42.273451z" p-id="6890"></path></svg>