<?xml version="1.0" standalone="no"?><!DOCTYPE svg PUBLIC "-//W3C//DTD SVG 1.1//EN" "http://www.w3.org/Graphics/SVG/1.1/DTD/svg11.dtd"><svg t="1587799809262" class="icon" viewBox="0 0 1024 1024" version="1.1" xmlns="http://www.w3.org/2000/svg" p-id="10444" xmlns:xlink="http://www.w3.org/1999/xlink" width="200" height="200"><defs><style type="text/css"></style></defs><path d="M933.875 328.90625V766.3625c0 43.2-32.85 78.24375-73.35 78.24375h-73.40625v-39.09375h73.40625c20.25 0 36.675-17.55 36.675-39.09375v-410.90625H750.44375c-40.55625 0-73.35-35.04375-73.35-78.24375V101.20625H346.90625c-20.25 0-36.675 17.55-36.675 39.09375h-36.675c0-43.2 32.85-78.24375 73.40625-78.24375H702.125L928.53125 322.15625M713.76875 133.6625v143.55c0 21.6 16.425 39.09375 36.73125 39.09375h123.91875L713.76875 133.6625z m36.675 312.6375V883.64375c0 43.2-32.85 78.3-73.35 78.3H163.475c-40.5 0-73.35-35.04375-73.35-78.3v-626.0625c0-43.2 32.85-78.24375 73.35-78.24375h355.1625l226.4625 260.04375M530.3375 251v143.60625c0 21.6 16.425 39.09375 36.675 39.09375h123.91875L530.3375 251z m-403.5375 6.6375v626.0625c0 21.65625 16.425 39.15 36.675 39.15H677.09375c20.25 0 36.675-17.55 36.675-39.15V472.85H567.06875c-40.5 0-73.35-35.04375-73.35-78.24375v-176.0625H163.53125c-20.30625 0-36.73125 17.49375-36.73125 39.09375z m91.74375 234.7875h183.43125v39.09375H218.54375v-39.09375z m0-117.39375h183.43125v39.09375H218.54375v-39.09375z m403.5375 273.9375H218.54375v-39.09375h403.5375v39.09375z m0 117.39375H218.54375v-39.15h403.5375v39.15z" fill="" p-id="10445"></path></svg>