<?xml version="1.0" standalone="no"?><!DOCTYPE svg PUBLIC "-//W3C//DTD SVG 1.1//EN" "http://www.w3.org/Graphics/SVG/1.1/DTD/svg11.dtd"><svg t="1587801647119" class="icon" viewBox="0 0 1024 1024" version="1.1" xmlns="http://www.w3.org/2000/svg" p-id="29554" xmlns:xlink="http://www.w3.org/1999/xlink" width="200" height="200"><defs><style type="text/css"></style></defs><path d="M230.4 269.964a188.51 188.51 0 1 1 377.018 0 188.51 188.51 0 0 1-377.018 0z m405.085 237.893a455.075 455.075 0 0 0-67.351-26.996 258.327 258.327 0 1 0-291.282 4.934C139.45 539.089 30.627 663.412 12.01 795.695a34.91 34.91 0 1 0 69.12 9.774c19.875-141.312 174.22-277.178 337.78-277.178 51.852 0 101.935 8.89 147.316 25.6a267.636 267.636 0 1 0 69.26-46.08z m-86.249 243.387a197.818 197.818 0 1 1 395.637 0 197.818 197.818 0 0 1-395.637 0z m55.855-18.107c0-19.27 15.825-34.909 35.374-34.909H848.99c19.55 0 35.375 15.5 35.375 34.91 0 19.27-15.826 34.909-35.375 34.909H640.465a35.049 35.049 0 0 1-35.374-34.91z" fill="#8A8A8A" p-id="29555"></path></svg>