<?xml version="1.0" standalone="no"?><!DOCTYPE svg PUBLIC "-//W3C//DTD SVG 1.1//EN" "http://www.w3.org/Graphics/SVG/1.1/DTD/svg11.dtd"><svg t="1587801695572" class="icon" viewBox="0 0 1024 1024" version="1.1" xmlns="http://www.w3.org/2000/svg" p-id="29674" xmlns:xlink="http://www.w3.org/1999/xlink" width="200" height="200"><defs><style type="text/css"></style></defs><path d="M843.000242 672.519758V196.514909H180.999758v413.758061H551.098182V676.460606H207.90303a93.090909 93.090909 0 0 1-93.090909-93.090909V223.418182a93.090909 93.090909 0 0 1 93.090909-93.090909h608.19394a93.090909 93.090909 0 0 1 93.090909 93.090909v359.951515a93.121939 93.121939 0 0 1-66.187637 89.150061zM490.558061 516.964848c-4.499394 6.578424-9.929697 10.084848-16.446061 10.550304H251.966061c-6.423273 0-11.853576-2.947879-16.384-8.812607-4.499394-5.895758-5.895758-13.498182-4.158061-22.869333 4.654545-20.666182 14.025697-37.019152 27.927273-48.965818 13.963636-11.946667 29.261576-18.183758 45.924848-18.649212h8.378182c16.725333 8.905697 33.202424 13.405091 49.462303 13.405091 16.290909 0 32.79903-4.499394 49.462303-13.405091h8.378182c16.663273 0.465455 31.557818 6.702545 44.621576 18.649212 13.032727 11.946667 22.776242 28.299636 29.199515 48.965818a25.848242 25.848242 0 0 1-4.189091 21.100606zM315.640242 299.442424c12.194909-12.815515 28.020364-19.549091 47.414303-20.169697 19.393939 0.682667 35.219394 7.416242 47.414303 20.200728 12.194909 12.784485 18.46303 28.051394 18.773334 45.769697-0.310303 19.362909-6.919758 35.219394-19.766303 47.476363-12.815515 12.288-28.330667 18.618182-46.421334 18.928485a67.304727 67.304727 0 0 1-46.421333-20.169697 64.605091 64.605091 0 0 1-19.766303-46.266182c0.310303-17.718303 6.609455-32.985212 18.773333-45.769697zM578.187636 279.272727h198.59394a33.109333 33.109333 0 1 1 0 66.187637h-198.59394a33.109333 33.109333 0 0 1 0-66.187637z m0 132.406303h66.218667a33.109333 33.109333 0 1 1 0 66.187637h-66.218667a33.109333 33.109333 0 0 1 0-66.187637z" fill="#333333" p-id="29675"></path><path d="M694.054788 924.70303a215.133091 215.133091 0 1 1 0-430.297212 215.133091 215.133091 0 0 1 0 430.297212z m46.793697-215.133091l58.523151-58.523151a33.109333 33.109333 0 1 0-46.824727-46.793697l-58.492121 58.492121-58.523152-58.492121a33.109333 33.109333 0 0 0-46.793697 46.793697l58.492122 58.523151-58.492122 58.492122a33.109333 33.109333 0 0 0 46.793697 46.824727l58.523152-58.523152 58.492121 58.523152a33.109333 33.109333 0 1 0 46.824727-46.824727l-58.523151-58.492122z" fill="#6CB02F" p-id="29676"></path></svg>