<?xml version="1.0" standalone="no"?><!DOCTYPE svg PUBLIC "-//W3C//DTD SVG 1.1//EN" "http://www.w3.org/Graphics/SVG/1.1/DTD/svg11.dtd"><svg t="1587801555701" class="icon" viewBox="0 0 1024 1024" version="1.1" xmlns="http://www.w3.org/2000/svg" p-id="28212" xmlns:xlink="http://www.w3.org/1999/xlink" width="200" height="200"><defs><style type="text/css"></style></defs><path d="M988.8256 838.4h-268.8a9.6256 9.6256 0 0 0-9.6256 9.6256v57.6c0 5.2736 4.3008 9.5744 9.6256 9.5744h268.8a9.6256 9.6256 0 0 0 9.5744-9.6256v-57.6a9.6256 9.6256 0 0 0-9.6256-9.5744zM371.3024 510.1056a305.408 305.408 0 0 1 3.4816-87.5008 9.6768 9.6768 0 0 0-5.376-10.5472 151.6032 151.6032 0 0 1-44.2368-30.1568 153.088 153.088 0 0 1-46.4384-114.4832 152.832 152.832 0 0 1 43.52-102.7072A152.7808 152.7808 0 0 1 434.176 118.272a153.3952 153.3952 0 0 1 127.6416 70.5536 9.5744 9.5744 0 0 0 11.1616 3.84 297.728 297.728 0 0 1 66.3552-14.848 9.6256 9.6256 0 0 0 7.5776-13.9264A240.4352 240.4352 0 0 0 436.0704 32C303.0016 29.952 192.1024 139.008 192.1024 271.872c0 75.3664 34.7136 142.592 89.088 186.624a360.7552 360.7552 0 0 0-103.8336 72.448 356.9152 356.9152 0 0 0-105.3696 244.8384 9.6256 9.6256 0 0 0 9.6256 9.8304h67.328c5.12 0 9.472-4.096 9.5744-9.216a271.2576 271.2576 0 0 1 80.0256-184.2176 270.8992 270.8992 0 0 1 125.6448-71.68 9.5744 9.5744 0 0 0 7.168-10.4448z m540.672-31.744a240.128 240.128 0 0 0-236.288-239.9744c-132.9664-2.048-243.712 107.008-243.712 240.0256 0 75.3664 34.816 142.5408 89.0368 186.5728a361.1648 361.1648 0 0 0-103.68 72.4992 356.864 356.864 0 0 0-105.3696 244.6848 9.6256 9.6256 0 0 0 9.5744 9.8304h67.2256c5.12 0 9.472-4.096 9.5744-9.216a271.2576 271.2576 0 0 1 80.0768-184.2176 271.7184 271.7184 0 0 1 193.536-80.1792 240.0256 240.0256 0 0 0 240.0256-239.9744z m-131.4304 108.6464a152.4736 152.4736 0 0 1-108.5952 45.0048 152.4736 152.4736 0 0 1-108.5952-45.056 152.7296 152.7296 0 0 1-45.0048-110.08 153.8048 153.8048 0 0 1 152.064-152.064 154.4704 154.4704 0 0 1 109.1584 43.9296c29.7984 29.184 46.08 68.096 46.08 109.6704a153.088 153.088 0 0 1-45.056 108.544z" p-id="28213"></path></svg>