<?xml version="1.0" standalone="no"?><!DOCTYPE svg PUBLIC "-//W3C//DTD SVG 1.1//EN" "http://www.w3.org/Graphics/SVG/1.1/DTD/svg11.dtd"><svg t="1587804968002" class="icon" viewBox="0 0 1024 1024" version="1.1" xmlns="http://www.w3.org/2000/svg" p-id="51627" xmlns:xlink="http://www.w3.org/1999/xlink" width="200" height="200"><defs><style type="text/css"></style></defs><path d="M975.811765 186.729412c24.094118 0 48.188235 0 48.188235 24.094117s-18.070588 18.070588-48.188235 18.070589h-90.352941v746.917647c0 24.094118-18.070588 48.188235-48.188236 48.188235H186.729412c-24.094118 0-48.188235-18.070588-48.188236-48.188235V234.917647H48.188235c-30.117647 0-48.188235 6.023529-48.188235-24.094118s18.070588-24.094118 48.188235-24.094117L240.941176 180.705882V48.188235c0-30.117647 42.164706-48.188235 66.258824-48.188235h409.6c24.094118 0 66.258824 18.070588 66.258824 48.188235v138.541177h192.752941zM301.176471 60.235294v120.470588h421.647058V60.235294H301.176471z m542.117647 903.529412V240.941176H180.705882v722.82353h662.588236z m-156.611765-560.188235c12.047059-12.047059 24.094118-12.047059 36.141176 0 12.047059 12.047059 12.047059 24.094118 0 36.141176l-174.682353 180.705882 192.752942 186.729412c12.047059 12.047059 12.047059 24.094118 0 36.141177-12.047059 12.047059-24.094118 12.047059-36.141177 0l-192.752941-186.729412-174.682353 180.705882c-12.047059 12.047059-24.094118 12.047059-36.141176 0-12.047059-12.047059-12.047059-24.094118 0-36.141176l174.682353-180.705883-162.635295-162.635294c-12.047059-6.023529-12.047059-24.094118 0-36.141176 12.047059-12.047059 24.094118-12.047059 36.141177 0l162.635294 156.611765 174.682353-174.682353z" p-id="51628"></path><path d="M975.811765 186.729412c24.094118 0 48.188235 0 48.188235 24.094117s-18.070588 18.070588-48.188235 18.070589h-90.352941v746.917647c0 24.094118-18.070588 48.188235-48.188236 48.188235H186.729412c-24.094118 0-48.188235-18.070588-48.188236-48.188235V234.917647H48.188235c-30.117647 0-48.188235 6.023529-48.188235-24.094118s18.070588-24.094118 48.188235-24.094117L240.941176 180.705882V48.188235c0-30.117647 42.164706-48.188235 66.258824-48.188235h409.6c24.094118 0 66.258824 18.070588 66.258824 48.188235v138.541177h192.752941zM301.176471 60.235294v120.470588h421.647058V60.235294H301.176471z m542.117647 903.529412V240.941176H180.705882v722.82353h662.588236z m-156.611765-560.188235c12.047059-12.047059 24.094118-12.047059 36.141176 0 12.047059 12.047059 12.047059 24.094118 0 36.141176l-174.682353 180.705882 192.752942 186.729412c12.047059 12.047059 12.047059 24.094118 0 36.141177-12.047059 12.047059-24.094118 12.047059-36.141177 0l-192.752941-186.729412-174.682353 180.705882c-12.047059 12.047059-24.094118 12.047059-36.141176 0-12.047059-12.047059-12.047059-24.094118 0-36.141176l174.682353-180.705883-162.635295-162.635294c-12.047059-6.023529-12.047059-24.094118 0-36.141176 12.047059-12.047059 24.094118-12.047059 36.141177 0l162.635294 156.611765 174.682353-174.682353z" p-id="51629"></path></svg>