<?xml version="1.0" standalone="no"?><!DOCTYPE svg PUBLIC "-//W3C//DTD SVG 1.1//EN" "http://www.w3.org/Graphics/SVG/1.1/DTD/svg11.dtd"><svg t="1587799526483" class="icon" viewBox="0 0 1024 1024" version="1.1" xmlns="http://www.w3.org/2000/svg" p-id="10078" xmlns:xlink="http://www.w3.org/1999/xlink" width="200" height="200"><defs><style type="text/css"></style></defs><path d="M520.222118 414.72H231.574588a29.455059 29.455059 0 0 1-26.23247-30.72 29.455059 29.455059 0 0 1 26.202353-31.984941h288.677647c16.022588 1.656471 27.708235 15.932235 26.202353 31.984941a29.455059 29.455059 0 0 1-26.202353 30.72z m209.92 165.767529H231.574588a32.647529 32.647529 0 0 1 0-64h498.56753a32.647529 32.647529 0 0 1 0 64z m0 165.76753H231.574588a32.647529 32.647529 0 0 1 0-64h498.56753a32.647529 32.647529 0 0 1 0 64z" fill="#333333" p-id="10079"></path><path d="M175.887059 0A128 128 0 0 0 47.887059 128v768A128 128 0 0 0 175.887059 1024h640a128 128 0 0 0 128-128l7.047529-670.72L732.039529 0H175.887059z m512 64L879.887059 256h-160.64753a31.352471 31.352471 0 0 1-31.322353-31.352471V64z m128 896H175.887059a64 64 0 0 1-64-64V128c0-35.358118 28.672-64 64-64h448V256c0 35.358118 28.672 64 64 64h192V896a64 64 0 0 1-64 64z" fill="#333333" p-id="10080"></path></svg>