<?xml version="1.0" standalone="no"?><!DOCTYPE svg PUBLIC "-//W3C//DTD SVG 1.1//EN" "http://www.w3.org/Graphics/SVG/1.1/DTD/svg11.dtd"><svg t="1587800551343" class="icon" viewBox="0 0 1279 1024" version="1.1" xmlns="http://www.w3.org/2000/svg" p-id="17327" xmlns:xlink="http://www.w3.org/1999/xlink" width="249.8046875" height="200"><defs><style type="text/css"></style></defs><path d="M602.079848 807.392611a47.880904 47.880904 0 0 0 16.768711 10.255244 49.613209 49.613209 0 0 0 19.60969 4.088239c1.663013 0 3.118149-0.762214 4.850453-0.900798a49.266748 49.266748 0 0 0 34.646096-13.511978l389.837867-371.752605a44.27771 44.27771 0 0 0 0-64.857491 49.821085 49.821085 0 0 0-68.114224 0l-312.784951 297.956422V45.871431a48.504534 48.504534 0 0 0-96.316145 0v620.650155L280.009744 370.921099a49.890378 49.890378 0 0 0-68.114224 0 44.347002 44.347002 0 0 0 0 64.857491z m628.272297-116.341589a48.088781 48.088781 0 0 0-49.197456 46.841521v145.513601a48.088781 48.088781 0 0 1-49.197455 46.841521H147.800244a48.088781 48.088781 0 0 1-49.197456-46.841521v-145.513601a49.197456 49.197456 0 0 0-98.325619 0v145.513601c0 77.537962 66.174042 140.593856 147.523075 140.593856h983.949113c81.349032 0 147.523075-63.055894 147.523075-140.593856v-145.513601a48.088781 48.088781 0 0 0-48.920287-46.910813z" fill="" p-id="17328"></path></svg>