<?xml version="1.0" standalone="no"?><!DOCTYPE svg PUBLIC "-//W3C//DTD SVG 1.1//EN" "http://www.w3.org/Graphics/SVG/1.1/DTD/svg11.dtd"><svg t="1587804238062" class="icon" viewBox="0 0 1024 1024" version="1.1" xmlns="http://www.w3.org/2000/svg" p-id="46523" xmlns:xlink="http://www.w3.org/1999/xlink" width="200" height="200"><defs><style type="text/css"></style></defs><path d="M155.584 359.664v594.88c0 28.944-58.4 28.816-58.4 0V396.8l-55.296 39.552C18.288 453.2-15.488 404.336 7.888 387.584l454.8-322.88c30.352-22.72 49.232-22.976 81.68 1.296l450.944 321.6c23.392 16.624-6.528 65.488-30.144 48.768l-54.96-39.12v98.992c0 30.208-60.976 30.08-60.976 0v-140.064L508.176 113.6c-4-3.008-7.76-3.008-11.648-0.24L155.584 359.664z m0 0" fill="" p-id="46524"></path><path d="M243.424 479.232h80.336a14.56 14.56 0 0 1 14.512 14.512v80.448a14.56 14.56 0 0 1-14.512 14.496h-80.336a14.56 14.56 0 0 1-14.512-14.496v-80.448a14.56 14.56 0 0 1 14.512-14.512zM434.16 479.232h80.336c8 0.016 14.48 6.512 14.496 14.512v80.448a14.56 14.56 0 0 1-14.496 14.496h-80.336a14.56 14.56 0 0 1-14.512-14.496v-80.448a14.544 14.544 0 0 1 14.512-14.512zM243.424 673.024h80.336c8 0.016 14.496 6.496 14.512 14.496v80.224a14.608 14.608 0 0 1-14.512 14.736h-80.336a14.608 14.608 0 0 1-14.512-14.736V687.52a14.48 14.48 0 0 1 14.512-14.496zM243.424 866.576h80.336c7.984 0 14.512 6.528 14.512 14.752v80.208a14.608 14.608 0 0 1-14.512 14.752h-80.336a14.608 14.608 0 0 1-14.512-14.752v-80.208a14.56 14.56 0 0 1 14.512-14.752zM436.88 673.024h80.352c8 0.016 14.464 6.496 14.496 14.496v80.224a14.624 14.624 0 0 1-14.496 14.736h-80.352a14.608 14.608 0 0 1-14.512-14.736V687.52a14.48 14.48 0 0 1 14.512-14.496zM436.88 866.576h80.352c7.952 0 14.496 6.528 14.496 14.752v80.208a14.624 14.624 0 0 1-14.496 14.752h-80.352a14.608 14.608 0 0 1-14.512-14.752v-80.208a14.56 14.56 0 0 1 14.512-14.752zM569.184 936.704c0 14.912 14.912 24.848 24.832 24.848 9.936 0 14.928-4.96 19.888-14.912 49.68-79.504 113.136-122.48 207.552-117.504v94.4c0 14.912 9.936 24.848 24.848 24.848 9.936 0 14.912-4.992 19.888-9.936l137.952-152.864c9.92-9.936 19.856-19.888 19.856-34.784s-4.96-24.848-14.912-34.768l-137.952-150.256c-4.992-4.96-9.936-9.936-19.872-9.936-14.912 0-29.808 14.912-29.808 29.808v79.504c-253.408 14.928-247.296 226.848-252.272 271.552z m41.12-50.624c14.32-76.336 63.312-185.04 235.104-185.04h14.336v-86.848l116.96 127.568c4.768 4.784 4.768 9.552 4.768 9.552l-9.552 9.552-113.568 130.112v-103.808h-41.584c-81.12-0.032-153.968 36.88-206.464 98.912z" fill="" p-id="46525"></path></svg>