<?xml version="1.0" standalone="no"?><!DOCTYPE svg PUBLIC "-//W3C//DTD SVG 1.1//EN" "http://www.w3.org/Graphics/SVG/1.1/DTD/svg11.dtd"><svg t="1587800284137" class="icon" viewBox="0 0 1024 1024" version="1.1" xmlns="http://www.w3.org/2000/svg" p-id="14349" xmlns:xlink="http://www.w3.org/1999/xlink" width="200" height="200"><defs><style type="text/css"></style></defs><path d="M288 128c-52.752 0-96 43.248-96 96v288h64V224c0-18 14-32 32-32h288v192h192v128h64V338.752L621.248 128z m352 109.248L722.752 320H640zM192 576l64 160-64 160h64l32-80 32 80h64l-64-160 64-160h-64l-32 80-32-80z m256 0v320h128v-64h-64V576z m289.248 0c-37.76 0-59.744 15.248-71.744 28-26.24 28.496-24.256 66.24-24.256 68 0 51.744 47.248 75.008 81.504 92 27.248 13.76 46.496 24 46.496 36.496 0 0.256-0.496 15.504-8.992 24.256-1.76 1.76-7.248 7.248-23.008 7.248h-90c3.744 12.256 9.76 25.76 21.504 37.76 11.744 12 33.504 26.24 68.496 26.24 35.248 0 56.752-14.496 68.752-26.496 27.248-27.76 27.248-65.76 27.248-69.504 0-52.496-47.504-76-82-93.248-26.752-13.248-45.76-23.744-46-36.752 0-0.256-0.256-14.496 7.504-22.496 4.496-5.008 12.992-7.504 24.496-7.504h90.752c-11.008-32.256-38.496-64-90.752-64z" p-id="14350"></path></svg>