<?xml version="1.0" standalone="no"?><!DOCTYPE svg PUBLIC "-//W3C//DTD SVG 1.1//EN" "http://www.w3.org/Graphics/SVG/1.1/DTD/svg11.dtd"><svg t="1587807780445" class="icon" viewBox="0 0 1086 1024" version="1.1" xmlns="http://www.w3.org/2000/svg" p-id="73147" xmlns:xlink="http://www.w3.org/1999/xlink" width="212.109375" height="200"><defs><style type="text/css"></style></defs><path d="M812.8 931.84H209.92C115.2 931.84 38.4 853.76 38.4 757.76V211.2C38.4 115.2 115.2 35.84 209.92 35.84h439.04c21.76 0 38.4 16.64 38.4 38.4s-16.64 38.4-38.4 38.4H209.92c-52.48 0-96 43.52-96 98.56v546.56c0 53.76 42.24 98.56 96 98.56h602.88c52.48 0 96-43.52 96-98.56V510.72c0-21.76 16.64-38.4 38.4-38.4s38.4 16.64 38.4 38.4v247.04c0 96-78.08 174.08-172.8 174.08z" fill="#323333" p-id="73148"></path><path d="M368.64 660.48c-20.48-69.12-20.48-129.28 0-180.48 35.84-88.32 134.4-153.6 300.8-198.4l24.32-6.4-37.12-138.24 293.12 126.72-190.72 256L723.2 384l-24.32 6.4C531.2 435.2 437.76 491.52 394.24 573.44c-14.08 26.88-21.76 56.32-25.6 87.04z" fill="#323333" p-id="73149"></path></svg>