<?xml version="1.0" standalone="no"?><!DOCTYPE svg PUBLIC "-//W3C//DTD SVG 1.1//EN" "http://www.w3.org/Graphics/SVG/1.1/DTD/svg11.dtd"><svg t="1587807485184" class="icon" viewBox="0 0 1024 1024" version="1.1" xmlns="http://www.w3.org/2000/svg" p-id="71483" xmlns:xlink="http://www.w3.org/1999/xlink" width="200" height="200"><defs><style type="text/css"></style></defs><path d="M768 786.883528c-22.173228 0-38.299213 16.125984-38.299213 38.299212v38.299213H76.598425v-467.653544h102.80315c22.173228 0 38.299213-16.125984 38.299212-38.299212s-16.125984-38.299213-38.299212-38.299213H38.299213c-22.173228 0-38.299213 16.125984-38.299213 38.299213v544.251968c0 22.173228 16.125984 38.299213 38.299213 38.299213h729.700787c22.173228 0 38.299213-16.125984 38.299213-38.299213v-76.598425c0-22.173228-16.125984-38.299213-38.299213-38.299212z" fill="#090509" p-id="71484"></path><path d="M1013.92126 377.686677l-282.204725-282.204724c-26.204724-26.204724-64.503937-4.031496-64.503937 28.220472v124.976378c-147.149606 6.047244-264.062992 54.425197-346.708661 137.070866-126.992126 126.992126-126.992126 294.299213-126.992126 300.346457 0 20.15748 16.125984 38.299213 38.299213 38.299213 14.110236 0 26.204724-6.047244 32.251968-18.141733 72.566929-129.007874 264.062992-149.165354 370.897638-149.165354h32.251968v129.007874c0 32.251969 40.314961 52.409449 64.503937 28.220472l282.204725-282.204724c8.062992-8.062992 10.07874-18.141732 10.07874-28.220472s-2.015748-18.141732-10.07874-26.204725z m-270.110236 215.68504v-70.551182c0-20.15748-14.110236-36.283465-34.267717-38.299212-2.015748 0-30.23622-4.031496-74.582677-4.031496-90.708661 0-233.826772 14.110236-340.661417 84.661417 16.125984-40.314961 40.314961-84.661417 80.629921-124.976378 74.582677-74.582677 187.464567-114.897638 330.582677-114.897638 22.173228 0 38.299213-16.125984 38.299213-38.299212v-70.551181l187.464567 187.464567-187.464567 189.480315z" fill="#090509" p-id="71485"></path></svg>