<?xml version="1.0" standalone="no"?><!DOCTYPE svg PUBLIC "-//W3C//DTD SVG 1.1//EN" "http://www.w3.org/Graphics/SVG/1.1/DTD/svg11.dtd"><svg t="1587807501108" class="icon" viewBox="0 0 1024 1024" version="1.1" xmlns="http://www.w3.org/2000/svg" p-id="71607" xmlns:xlink="http://www.w3.org/1999/xlink" width="200" height="200"><defs><style type="text/css"></style></defs><path d="M832.803 551.156H832V67H66v891.868h702v0.38c15.785 1.968 28 15.434 28 31.752 0 16.318-12.215 29.784-28 31.752v0.116h-1.079a32.409 32.409 0 0 1-5.842 0H66c-35.346 0-64-28.653-64-64V67C2 31.654 30.654 3 66 3h766c35.346 0 64 28.654 64 64v484.156h-0.803C891.947 565.384 879.213 576 864 576s-27.947-10.616-31.197-24.844z m76.26 344.765H614.255c-17.673 0-32-14.327-32-32 0-17.673 14.327-32 32-32H909.55l-53.264-49.177c-12.308-12.309-12.155-32.417 0.341-44.914 12.497-12.497 32.606-12.65 44.914-0.341l112.732 104.083c12.308 12.308 12.156 32.417-0.341 44.913a32.677 32.677 0 0 1-4.299 3.62L900.541 990.825c-12.308 12.309-32.417 12.156-44.914-0.34-12.496-12.497-12.65-32.606-0.34-44.914l53.776-49.651zM440.65 576.636L316.515 747.164H202l184.067-244.173L223.117 276h115.18L440.65 433.656 552.154 276H662.39L495.176 502.99l179.226 244.174H566.774L440.65 576.636z" p-id="71608"></path></svg>