<?xml version="1.0" standalone="no"?><!DOCTYPE svg PUBLIC "-//W3C//DTD SVG 1.1//EN" "http://www.w3.org/Graphics/SVG/1.1/DTD/svg11.dtd"><svg t="1587799646281" class="icon" viewBox="0 0 1024 1024" version="1.1" xmlns="http://www.w3.org/2000/svg" p-id="10203" xmlns:xlink="http://www.w3.org/1999/xlink" width="200" height="200"><defs><style type="text/css"></style></defs><path d="M897.563356 965.484282 111.799272 965.484282c-59.920718 0-100.087533-47.771003-100.087533-107.686604L11.711739 166.070316c0-59.904345 40.167838-109.60121 100.087533-109.60121l290.101167 0c14.46341 0 27.064402 9.904581 30.448476 23.965831l32.145118 132.760676 433.083649 0c59.906391 0 117.191072 49.695842 117.191072 109.602234l0 534.99983C1014.767731 917.713278 957.48305 965.484282 897.563356 965.484282L897.563356 965.484282M111.799272 119.159914c-25.343201 0-37.395702 21.582551-37.395702 46.908356l0 691.728384c0 25.358551 12.0525 44.992727 37.395702 44.992727l785.777387 0c25.328875 0 54.497195-19.635199 54.497195-44.992727L952.073854 322.796824c0-25.328875-29.169343-46.911426-54.512544-46.911426L439.812911 275.885398c-14.46955 0-27.070542-9.904581-30.453592-23.965831l-32.146141-132.759653L111.799272 119.159914 111.799272 119.159914M111.799272 119.159914" p-id="10204"></path><path d="M927.845033 150.502759 536.02723 150.502759c-17.305131 0-31.347962-14.043854-31.347962-31.342846 0-17.305131 14.042831-31.347962 31.347962-31.347962l391.817804 0c17.300015 0 31.344892 14.042831 31.344892 31.347962C959.188902 136.458905 945.160397 150.502759 927.845033 150.502759L927.845033 150.502759M927.845033 150.502759" p-id="10205"></path></svg>