<?xml version="1.0" standalone="no"?><!DOCTYPE svg PUBLIC "-//W3C//DTD SVG 1.1//EN" "http://www.w3.org/Graphics/SVG/1.1/DTD/svg11.dtd"><svg t="1587806774473" class="icon" viewBox="0 0 1097 1024" version="1.1" xmlns="http://www.w3.org/2000/svg" p-id="69624" xmlns:xlink="http://www.w3.org/1999/xlink" width="214.2578125" height="200"><defs><style type="text/css"></style></defs><path d="M1060.571429 365.860571V146.285714a146.285714 146.285714 0 0 0-146.285715-146.285714h-731.428571a146.285714 146.285714 0 0 0-146.285714 146.285714v731.428572a146.285714 146.285714 0 0 0 146.285714 146.285714h731.428571a146.285714 146.285714 0 0 0 146.285715-146.285714V365.860571zM131.145143 94.500571A72.850286 72.850286 0 0 1 182.857143 73.142857h731.501714a73.142857 73.142857 0 0 1 73.069714 73.289143v146.358857H109.641143v-146.285714c0-19.529143 7.68-38.180571 21.504-51.931429z m307.565714 527.36v-256h219.721143v256H438.710857z m219.721143 73.069715V950.857143H438.710857V694.857143h219.721143z m-292.790857-73.142857H109.714286v-256H365.714286v256zM131.145143 929.645714a72.557714 72.557714 0 0 1-21.504-51.712V694.930286H365.714286V950.857143H182.930286a72.704 72.704 0 0 1-51.785143-21.357714z m856.356571-51.712a72.850286 72.850286 0 0 1-73.069714 73.069715h-182.930286V694.857143h256v182.930286z m0-256H731.428571v-256h256v256z" p-id="69625"></path></svg>