<?xml version="1.0" standalone="no"?><!DOCTYPE svg PUBLIC "-//W3C//DTD SVG 1.1//EN" "http://www.w3.org/Graphics/SVG/1.1/DTD/svg11.dtd"><svg t="1587801101390" class="icon" viewBox="0 0 1024 1024" version="1.1" xmlns="http://www.w3.org/2000/svg" p-id="23875" xmlns:xlink="http://www.w3.org/1999/xlink" width="200" height="200"><defs><style type="text/css"></style></defs><path d="M670.595389 0l241.108843 240.962672-0.073085 158.668475h80.028549v479.659696h-80.028549v47.944044c0 52.986939-42.901149 95.961173-95.888088 95.961173h-639.497538a95.961173 95.961173 0 0 1-95.888088-95.961173l-0.073085-47.944044H0.40197V399.777318l79.882378-0.073086V95.961173C80.357433 42.974235 123.331668 0 176.318607 0H670.595389z m145.14767 879.290843h-639.497538v47.944044h639.497538v-47.944044z m79.955464-383.698523H96.290058v287.810435H895.698523V495.519235z m-534.035258 21.92563c11.474413 0.219256 23.021911 1.315538 34.496324 3.215759 10.962815 1.75405 21.633288 4.385126 31.938334 8.039398l-1.461709 44.947541a154.356434 154.356434 0 0 0-56.64121-10.08579 73.377775 73.377775 0 0 0-26.456927 5.481408 65.703804 65.703804 0 0 0-21.633288 16.078795 76.00885 76.00885 0 0 0-13.813147 26.456927 113.501677 113.501677 0 0 0 0 53.571622c2.55799 9.574192 6.72386 18.271358 12.716866 26.164585a56.275783 56.275783 0 0 0 43.99743 20.463921 79.663122 79.663122 0 0 0 19.002213-1.75405v-46.920848H362.905717V619.764471h77.689815v114.744129c-11.547498 8.331739-24.191278 14.178574-38.004425 17.540504-13.593891 3.654272-27.553208 5.627578-41.658697 5.846835a132.430804 132.430804 0 0 1-47.286275-9.208765 109.043466 109.043466 0 0 1-37.419741-26.23767 129.580472 129.580472 0 0 1-13.520806-19.294554 130.384412 130.384412 0 0 1-9.793448-23.241168 160.787952 160.787952 0 0 1-3.142673-68.846478 141.054885 141.054885 0 0 1 6.943116-24.410534c5.91992-14.982514 14.617087-28.137892 26.164585-39.466134 11.693669-10.743559 25.214474-18.709871 40.562415-23.825851 12.424524-3.508101 25.214474-5.408322 38.296767-5.846835z m162.249661 5.846835v228.757405h-57.518236V523.291699h57.591321z m179.05931 0v46.043823H607.449575v51.744486h83.098138v44.582114H607.449575v86.386982h-57.591321V523.291699h153.113982zM587.05874 95.888088h-410.740133l-0.146171 303.743059h639.570623V318.140889H587.05874V95.961173z m95.888087 52.109914v74.254799h74.2548L682.946827 147.998002z" p-id="23876"></path></svg>