<?xml version="1.0" standalone="no"?><!DOCTYPE svg PUBLIC "-//W3C//DTD SVG 1.1//EN" "http://www.w3.org/Graphics/SVG/1.1/DTD/svg11.dtd"><svg t="1587804583244" class="icon" viewBox="0 0 1024 1024" version="1.1" xmlns="http://www.w3.org/2000/svg" p-id="49263" xmlns:xlink="http://www.w3.org/1999/xlink" width="200" height="200"><defs><style type="text/css"></style></defs><path d="M792.240244 1023.334832a68.1541 68.1541 0 0 1-40.52406-14.12202l-0.921001-0.921002c-13.201019-10.233348-69.740269-56.539249-69.740269-56.539249a66.056263 66.056263 0 0 0-30.137211-12.228851H299.351022a60.734922 60.734922 0 0 1-49.017739-10.233349c-13.201019-12.228851-184.711937-154.574726-235.622845-197.912956l-1.893169-1.89317-1.89317-1.893169a60.786089 60.786089 0 0 1-2.81417-64.111927l0.921001-0.921002a88.006796 88.006796 0 0 1 53.725079-37.709888 146.797382 146.797382 0 0 1 111.236496 28.295208l0.921001 0.921001c44.310398 32.03038 110.264328 77.26178 131.959027 92.355969h158.361065c-17.90836-1.893169-33.002548-3.786339-43.33823-5.679509a86.983461 86.983461 0 0 1-72.55444-83.862289 69.177435 69.177435 0 0 1 76.95478-75.573277h312.117124a72.810273 72.810273 0 0 1 42.417228 16.987358l1.89317 1.893169 1.893169 1.89317c13.201019 14.122021 170.589917 145.160046 201.699296 169.668915l4.70734 2.814171a43.287063 43.287063 0 0 1 19.801529 31.109379 51.166742 51.166742 0 0 1-15.094189 38.630889l-159.282066 161.175237a75.419777 75.419777 0 0 1-44.208065 17.857192z m-2.814171-54.64608z m-3.786339-5.679508a12.535852 12.535852 0 0 0 6.60051 2.814171l0.921001-0.921002 151.760556-154.574726c-44.310398-33.002548-178.111428-145.160046-203.592465-169.668915a13.149853 13.149853 0 0 0-8.493679-2.814171H424.658372c-19.801529 0-20.72253 1.893169-20.72253 17.90836a28.499875 28.499875 0 0 0 25.583371 28.295208h0.921001c22.6157 4.70734 84.834458 9.41468 131.959026 12.228851a31.774547 31.774547 0 0 1 33.002549 22.6157 34.435217 34.435217 0 0 1-17.90836 39.603058l-66.926098 43.33823H287.173337l-7.521511-4.70734c-0.921001-0.921001-85.755459-59.35342-139.480537-98.035477a94.811972 94.811972 0 0 0-65.95393-20.722531 29.67671 29.67671 0 0 0-16.987359 10.233349c0 0.921001-0.921001 1.893169-0.921001 3.786339 55.618248 47.124569 216.793484 180.976765 229.022336 191.312446h2.81417l3.786339-0.921001h362.874532a113.027332 113.027332 0 0 1 61.40009 24.508869c0.614001 0.102333 55.260081 44.412732 69.433268 55.720582z" fill="#666666" p-id="49264"></path><path d="M734.728826 488.949383V181.693099a40.268226 40.268226 0 0 0-18.829361-34.895717L497.212812 3.530505a23.025034 23.025034 0 0 0-24.50887 0l-227.129166 143.266877a40.268226 40.268226 0 0 0-18.829361 34.895717v306.284116a35.509719 35.509719 0 0 0 28.295209 41.496227 26.095038 26.095038 0 0 0 8.493679 0.921002h428.828461a42.059062 42.059062 0 0 0 42.366062-41.445061z m-60.325588-23.587868H279.498326V193.921951l189.316944-115.943837a23.025034 23.025034 0 0 1 24.508869 0l180.976765 115.943837z" fill="#666666" p-id="49265"></path><path d="M360.546445 368.247039a3.479338 3.479338 0 0 0-2.814171-0.921001 23.127367 23.127367 0 1 1 2.814171-46.050067h235.622845a22.155199 22.155199 0 0 1 20.72253 23.587868v2.81417a22.155199 22.155199 0 0 1-23.587868 20.722531zM403.935842 275.12357a23.127367 23.127367 0 1 1 2.81417-46.050068h139.531705a21.336531 21.336531 0 0 1 21.694698 21.694699 23.127367 23.127367 0 0 1-21.694698 24.508869H403.987008z" fill="#666666" p-id="49266"></path></svg>