<?xml version="1.0" standalone="no"?><!DOCTYPE svg PUBLIC "-//W3C//DTD SVG 1.1//EN" "http://www.w3.org/Graphics/SVG/1.1/DTD/svg11.dtd"><svg t="1587806290294" class="icon" viewBox="0 0 1024 1024" version="1.1" xmlns="http://www.w3.org/2000/svg" p-id="68258" xmlns:xlink="http://www.w3.org/1999/xlink" width="200" height="200"><defs><style type="text/css"></style></defs><path d="M614.44751293 549.97111274l-84.90509341 85.46649424-135.85792231-136.74834537 79.25090712-79.76887273-39.62491063-39.88660814-79.2465636 79.76887274-79.24656363-79.76887274-96.23083994 96.86608075c-93.99066591 93.32067686-103.72342395 242.68696809-22.64063435 347.56794197L25.75518668 960.21614886l39.62491063 39.88117873 130.19179141-131.04963801c45.28018273 39.88660813 101.88611205 56.97838676 158.49204139 56.97838675 67.92516057 0 135.85140705-28.48702163 186.79663482-79.76887272l96.2275823-96.86173725-73.58694799-74.07125127 84.90617927-85.47083774-33.95986558-39.88226461zM501.23674017 800.67297395c-39.62056711 39.88769402-90.56579489 62.67709412-141.51102268 62.67709415-50.9452278 0-101.89154147-17.09286451-135.85249294-56.97512911l-5.66070151-5.70305093c-73.5858621-74.07125123-73.5858621-199.42001008 5.66070151-279.19431222l50.9452278-51.27642172L552.18196793 749.39546636l-50.94522775 51.27750759z m498.12544546-735.01923443l-39.62491062-39.88660815-124.53108992 119.65548087c-45.28669802-39.88660813-101.88611205-56.97838676-158.49204135-56.97838674-67.92516057 0-135.85249295 28.48593573-186.79772072 79.76778688l-96.23083994 91.16411573 367.9358258 370.3627715 90.56579491-91.16302986c93.99609532-93.32610626 103.7266816-242.6923975 22.64497783-347.57445728l124.53000401-125.34767295z m-192.45733635 427.3379006l-45.28561215 45.58531551-277.36242975-279.19974164 45.28561215-45.57880024c39.62056711-39.88769402 90.56579489-62.67709412 141.5110227-62.67709411 50.94088425 0 101.88611205 17.09177859 135.85249291 56.97947263l5.65961563 5.69762148c79.24547776 74.07125123 73.5858621 199.4243536-5.66070149 279.19322637z m0 0" fill="#2c2c2c" p-id="68259"></path></svg>