<?xml version="1.0" standalone="no"?><!DOCTYPE svg PUBLIC "-//W3C//DTD SVG 1.1//EN" "http://www.w3.org/Graphics/SVG/1.1/DTD/svg11.dtd"><svg t="1587801004669" class="icon" viewBox="0 0 1041 1024" version="1.1" xmlns="http://www.w3.org/2000/svg" p-id="22242" xmlns:xlink="http://www.w3.org/1999/xlink" width="203.3203125" height="200"><defs><style type="text/css"></style></defs><path d="M294.559393 341.033524a19.914974 19.914974 0 0 0 20.045138 19.914974h412.096791a19.914974 19.914974 0 1 0 0-39.960112H314.604531a19.914974 19.914974 0 0 0-20.045138 20.045138z" fill="#A13858" p-id="22243"></path><path d="M1041.305852 455.577168h-111.029236V205.273274a26.032646 26.032646 0 0 0-8.07012-18.613343l-8.330447-7.809793-21.997586-20.435628q-33.582114-31.109012-67.554718-61.957698L820.028359 92.031262c-29.026401-26.032646-53.236762-47.639743-71.069125-62.738678q-15.619588-13.016323-24.731014-19.784811a68.07537 68.07537 0 0 0-10.543221-6.508161 27.334279 27.334279 0 0 0-13.016324-2.993755 26.032646 26.032646 0 0 0-26.032646 26.032647v230.38892h204.356274V455.577168H162.31355V52.07115H597.449233a26.032646 26.032646 0 1 0 0-52.065293H111.029237v455.571311H0v442.554987h110.638747a127.69013 127.69013 0 0 0 127.820293 125.607519h691.16676V898.132155H1041.305852zM725.399689 205.273274V77.06249C741.93042 91.120119 761.585068 108.692156 785.01445 130.169089l4.816039 4.42555q33.712277 30.588359 67.164228 61.567208l10.022568 9.24159zM350.139093 562.180854a25.251667 25.251667 0 0 0-21.216607 8.590774 53.366925 53.366925 0 0 0-4.165223 27.073952v116.365929a133.547476 133.547476 0 0 1-5.857346 43.474519 67.554717 67.554717 0 0 1-20.305464 29.026401 52.065293 52.065293 0 0 1-34.753583 13.016323 39.048969 39.048969 0 0 1-26.032646-8.200284 24.210361 24.210361 0 0 1-9.501916-18.743505 17.572036 17.572036 0 0 1 4.42555-13.016323 19.133995 19.133995 0 0 1 13.016323-5.466856 15.489425 15.489425 0 0 1 10.152732 3.644571 59.354434 59.354434 0 0 1 11.324201 19.654648q4.03506 9.501916 10.413059 9.501916A11.324201 11.324201 0 0 0 286.359109 780.985247a37.226684 37.226684 0 0 0 4.165224-20.565791v-162.704039a79.009082 79.009082 0 0 0-2.342938-23.819872 15.749751 15.749751 0 0 0-7.419305-7.549467 32.280481 32.280481 0 0 0-16.010077-4.165224h-8.590773v-6.508161h102.047973v6.508161z m45.947621 7.679631a26.032646 26.032646 0 0 0-20.305464-7.679631h-8.981263v-6.508161h87.209365a154.373593 154.373593 0 0 1 50.37317 6.638325 69.377002 69.377002 0 0 1 31.109013 22.257912 57.141659 57.141659 0 0 1 13.016323 37.096521 62.478351 62.478351 0 0 1-19.264158 47.379417 75.755001 75.755001 0 0 1-54.408231 18.222852 154.633919 154.633919 0 0 1-19.264159-1.301632q-10.022569-1.171469-21.476933-3.644571v69.377003a48.681049 48.681049 0 0 0 4.946203 27.854931 25.251667 25.251667 0 0 0 20.175301 7.679631H468.587634V794.00157h-101.787647v-6.508162h8.981263a23.950035 23.950035 0 0 0 21.607096-9.892405 57.922638 57.922638 0 0 0 3.514407-26.032647V597.715417a50.112844 50.112844 0 0 0-4.816039-27.854932z m177.282321 108.556135A134.198292 134.198292 0 0 1 637.799835 565.434935a120.400989 120.400989 0 0 1 61.827535-15.229098 122.353438 122.353438 0 0 1 23.559545 2.082612 217.632923 217.632923 0 0 1 30.067706 9.241589 48.290559 48.290559 0 0 0 13.016323 3.644571 7.028815 7.028815 0 0 0 5.727182-3.123918 23.559545 23.559545 0 0 0 2.863591-11.975017H780.979389l6.638325 74.713695H780.979389a102.69879 102.69879 0 0 0-24.080197-42.30305A75.234348 75.234348 0 0 0 702.88145 562.441181 78.097939 78.097939 0 0 0 633.634611 598.756723a129.252089 129.252089 0 0 0-19.784811 72.370756 144.61135 144.61135 0 0 0 13.016323 62.218025 92.415894 92.415894 0 0 0 34.493257 41.131581 82.783815 82.783815 0 0 0 43.865009 13.016323 96.320791 96.320791 0 0 0 26.032646-3.384244 100.876504 100.876504 0 0 0 23.689708-10.022569v-68.856349a63.779983 63.779983 0 0 0-2.733428-23.429382 18.353016 18.353016 0 0 0-8.46061-8.46061 48.681049 48.681049 0 0 0-20.045138-2.863591V663.838338h92.155568v6.638325h-4.946202a19.654648 19.654648 0 0 0-18.743506 9.111426 61.567209 61.567209 0 0 0-3.514407 26.032647v72.891409A178.323627 178.323627 0 0 1 748.829071 794.00157a174.548894 174.548894 0 0 1-43.734846 5.076366q-68.986513 0-104.781401-44.255499a118.188214 118.188214 0 0 1-26.943789-76.405817z m305.623268 294.42923H239.109856a76.53598 76.53598 0 0 1-76.796306-74.713695h716.678753z" fill="#A13858" p-id="22244"></path><path d="M451.015597 674.902213a104.130585 104.130585 0 0 0 12.235344 0.911143A41.782397 41.782397 0 0 0 494.62028 661.625563 51.284313 51.284313 0 0 0 507.636603 624.789369a65.862595 65.862595 0 0 0-6.377998-28.766074 43.604683 43.604683 0 0 0-17.962526-19.784812 52.065293 52.065293 0 0 0-26.032647-6.638324 104.130585 104.130585 0 0 0-23.038892 3.384244v99.054219q9.632079 1.952448 16.791057 2.863591z" fill="#A13858" p-id="22245"></path><path d="M358.729866 555.672693h-102.047973v6.508161h8.590773a32.280481 32.280481 0 0 1 16.010077 4.165224 15.749751 15.749751 0 0 1 7.419305 7.549467 79.009082 79.009082 0 0 1 2.342938 23.819872v162.704039A37.226684 37.226684 0 0 1 286.359109 780.985247a11.324201 11.324201 0 0 1-8.851099 5.727182q-6.377998 0-10.413059-9.501916a59.354434 59.354434 0 0 0-11.324201-19.654648 15.489425 15.489425 0 0 0-10.152732-3.64457 19.133995 19.133995 0 0 0-13.016323 5.466855 17.572036 17.572036 0 0 0-4.42555 13.016323 24.210361 24.210361 0 0 0 9.501916 18.743506 39.048969 39.048969 0 0 0 26.032646 8.200283 52.065293 52.065293 0 0 0 34.753583-13.016323 67.554717 67.554717 0 0 0 20.305464-29.0264 133.547476 133.547476 0 0 0 5.857346-43.47452v-116.105602a53.366925 53.366925 0 0 1 4.165223-27.073953 25.251667 25.251667 0 0 1 21.216607-8.590773h8.590773zM397.258183 777.340676a23.950035 23.950035 0 0 1-21.607097 9.892406h-8.981263V794.00157H468.587634v-6.508162h-9.111427a25.251667 25.251667 0 0 1-20.1753-7.67963 48.681049 48.681049 0 0 1-4.946203-27.854932v-69.767492q11.454364 2.473101 21.476933 3.64457a154.633919 154.633919 0 0 0 18.613342 1.17147 75.755001 75.755001 0 0 0 54.408231-18.222853 62.478351 62.478351 0 0 0 19.264158-47.379416 57.141659 57.141659 0 0 0-13.016323-37.096521 69.377002 69.377002 0 0 0-31.109012-22.257913 154.373593 154.373593 0 0 0-50.373171-6.638325h-87.209365v6.508162h8.981263a26.032646 26.032646 0 0 1 20.305464 7.679631 50.112844 50.112844 0 0 1 4.685876 27.854931v154.113266a57.922638 57.922638 0 0 1-3.123917 25.77232zM434.484867 572.724076a104.130585 104.130585 0 0 1 23.038892-3.384244 52.065293 52.065293 0 0 1 26.032646 6.638325 43.604683 43.604683 0 0 1 17.962526 19.784811A65.862595 65.862595 0 0 1 507.636603 624.789369a51.284313 51.284313 0 0 1-13.016323 36.575868 41.782397 41.782397 0 0 1-31.499502 14.187792 104.130585 104.130585 0 0 1-12.235344-0.911142q-7.158978-0.911143-16.53073-2.603265zM600.312824 754.9526q35.794889 44.255499 104.781401 44.255499a174.548894 174.548894 0 0 0 43.734846-5.206529 178.323627 178.323627 0 0 0 39.829949-16.010078v-72.891409a61.567209 61.567209 0 0 1 3.514407-26.032647 19.654648 19.654648 0 0 1 18.743506-9.111426h4.425549V663.838338h-92.155567v6.638325a48.681049 48.681049 0 0 1 20.045137 2.863591 18.353016 18.353016 0 0 1 8.46061 8.46061 63.779983 63.779983 0 0 1 2.733428 23.429382v68.856349a100.876504 100.876504 0 0 1-23.689708 9.762243 96.320791 96.320791 0 0 1-26.032646 3.384244 82.783815 82.783815 0 0 1-43.865009-13.016323 92.415894 92.415894 0 0 1-34.493257-41.131582 144.61135 144.61135 0 0 1-13.016323-62.218024A129.252089 129.252089 0 0 1 633.634611 598.756723 78.097939 78.097939 0 0 1 702.88145 562.441181a75.234348 75.234348 0 0 1 54.668558 20.56579A102.69879 102.69879 0 0 1 780.979389 624.789369h6.117672L780.979389 550.205837h-6.508161a23.559545 23.559545 0 0 1-2.863591 11.975017 7.028815 7.028815 0 0 1-5.727183 3.123918 48.290559 48.290559 0 0 1-13.016323-3.64457 217.632923 217.632923 0 0 0-30.067706-9.24159 122.353438 122.353438 0 0 0-23.559545-2.082612A120.400989 120.400989 0 0 0 637.799835 565.434935a134.198292 134.198292 0 0 0-64.300637 112.851522A118.188214 118.188214 0 0 0 600.312824 754.9526z" fill="#FFFFFF" p-id="22246"></path></svg>