<?xml version="1.0" standalone="no"?><!DOCTYPE svg PUBLIC "-//W3C//DTD SVG 1.1//EN" "http://www.w3.org/Graphics/SVG/1.1/DTD/svg11.dtd"><svg t="1589274967602" class="icon" viewBox="0 0 1024 1024" version="1.1" xmlns="http://www.w3.org/2000/svg" p-id="2883" xmlns:xlink="http://www.w3.org/1999/xlink" width="16" height="16"><defs><style type="text/css"></style></defs><path d="M784.2 838.7H241.8c-11.6 0-21-9.4-21-21v-630c0-11.6 9.4-21 21-21h542.3c11.6 0 21 9.4 21 21v630c0.1 11.6-9.3 21-20.9 21z m-521.4-42h500.3v-588H262.8v588z" p-id="2884"></path><path d="M647.2 375.1H378.8c-11.6 0-21-9.4-21-21s9.4-21 21-21h268.4c11.6 0 21 9.4 21 21s-9.4 21-21 21zM647.2 514.8H378.8c-11.6 0-21-9.4-21-21s9.4-21 21-21h268.4c11.6 0 21 9.4 21 21s-9.4 21-21 21zM647.2 654.5H378.8c-11.6 0-21-9.4-21-21s9.4-21 21-21h268.4c11.6 0 21 9.4 21 21s-9.4 21-21 21z" p-id="2885"></path></svg>