<?xml version="1.0" standalone="no"?><!DOCTYPE svg PUBLIC "-//W3C//DTD SVG 1.1//EN" "http://www.w3.org/Graphics/SVG/1.1/DTD/svg11.dtd"><svg t="1587805986221" class="icon" viewBox="0 0 1024 1024" version="1.1" xmlns="http://www.w3.org/2000/svg" p-id="63735" xmlns:xlink="http://www.w3.org/1999/xlink" width="200" height="200"><defs><style type="text/css"></style></defs><path d="M501.76 1019.904v-64c70.144 0 127.488-57.344 127.488-127.488 0-48.128 20.48-93.696 55.296-125.44 59.904-53.76 92.672-131.072 89.6-211.456-4.608-141.312-118.784-257.024-259.584-263.168-75.264-3.584-146.944 23.04-201.216 75.264-54.784 51.712-84.48 121.856-84.48 197.12H164.864c0-92.672 36.864-179.2 104.448-243.712 67.072-64 155.136-97.28 248.32-92.672 174.08 8.192 314.88 151.04 320.512 325.12 3.072 99.328-37.376 194.56-111.104 261.12-22.016 19.968-34.304 48.128-34.304 77.824 0 105.984-85.504 191.488-190.976 191.488z" p-id="63736"></path><path d="M687.616 503.296h-64c0-69.12-56.32-124.928-124.928-124.928S373.76 434.176 373.76 503.296H309.76C309.76 399.36 394.24 314.368 498.688 314.368s188.928 84.992 188.928 188.928zM993.28 490.496h-64c0-232.448-188.928-421.376-421.376-421.376V5.12C775.68 5.12 993.28 223.232 993.28 490.496z" p-id="63737"></path><path d="M351.744 663.552m-47.616 0a47.616 47.616 0 1 0 95.232 0 47.616 47.616 0 1 0-95.232 0Z" p-id="63738"></path><path d="M122.88 907.264m-47.616 0a47.616 47.616 0 1 0 95.232 0 47.616 47.616 0 1 0-95.232 0Z" p-id="63739"></path><path d="M129.1264 722.71872l45.2608-45.25056 178.11968 178.11968-45.25568 45.25568z" p-id="63740"></path></svg>