<?xml version="1.0" standalone="no"?><!DOCTYPE svg PUBLIC "-//W3C//DTD SVG 1.1//EN" "http://www.w3.org/Graphics/SVG/1.1/DTD/svg11.dtd"><svg t="1587799198825" class="icon" viewBox="0 0 1024 1024" version="1.1" xmlns="http://www.w3.org/2000/svg" p-id="4758" xmlns:xlink="http://www.w3.org/1999/xlink" width="200" height="200"><defs><style type="text/css"></style></defs><path d="M883.6 926.7H140.4c-42.1 0-76.4-35.9-76.4-80V577.8c0-22.1 17.9-40 40-40s40 17.9 40 40v268.9h736V577.8c0-22.1 17.9-40 40-40s40 17.9 40 40v268.9c0 44.1-34.3 80-76.4 80z" fill="#2C2C2C" p-id="4759"></path><path d="M512 744.2c-22.1 0-40-17.9-40-40V104.6c0-22.1 17.9-40 40-40s40 17.9 40 40v599.6c0 22.1-17.9 40-40 40z" fill="#2C2C2C" p-id="4760"></path><path d="M320 335.9c-10.2 0-20.5-3.9-28.3-11.7-15.6-15.6-15.6-40.9 0-56.6L481.6 77.8c4.5-4.5 13.9-13.9 30.4-13.9 10.6 0 20.8 4.2 28.3 11.7l192 192c15.6 15.6 15.6 40.9 0 56.6s-40.9 15.6-56.6 0L512 160.5 348.3 324.2c-7.8 7.8-18.1 11.7-28.3 11.7z" fill="#2C2C2C" p-id="4761"></path></svg>