<?xml version="1.0" standalone="no"?><!DOCTYPE svg PUBLIC "-//W3C//DTD SVG 1.1//EN" "http://www.w3.org/Graphics/SVG/1.1/DTD/svg11.dtd"><svg t="1587801807463" class="icon" viewBox="0 0 1024 1024" version="1.1" xmlns="http://www.w3.org/2000/svg" p-id="31007" xmlns:xlink="http://www.w3.org/1999/xlink" width="200" height="200"><defs><style type="text/css"></style></defs><path d="M512 1024A512 512 0 1 1 512 0a512 512 0 0 1 0 1024zM512 128C300.288 128 128 300.288 128 512s172.288 384 384 384 384-172.288 384-384-172.288-384-384-384z m192 448H512a64 64 0 0 1-64-64V256a64 64 0 1 1 128 0v192h128a64 64 0 1 1 0 128z" p-id="31008"></path></svg>