<?xml version="1.0" standalone="no"?><!DOCTYPE svg PUBLIC "-//W3C//DTD SVG 1.1//EN" "http://www.w3.org/Graphics/SVG/1.1/DTD/svg11.dtd"><svg t="1587805243770" class="icon" viewBox="0 0 1024 1024" version="1.1" xmlns="http://www.w3.org/2000/svg" p-id="52613" xmlns:xlink="http://www.w3.org/1999/xlink" width="200" height="200"><defs><style type="text/css"></style></defs><path d="M170.105041 298.008361C170.105041 300.289232 168.280543 302.111314 166.013378 302.111314L857.986622 302.111314C855.74817 302.111314 853.894959 300.261483 853.894959 298.008361L853.894959 709.991639C853.894959 707.710769 855.719457 705.888686 857.986622 705.888686L166.013378 705.888686C168.25183 705.888686 170.105041 707.738517 170.105041 709.991639L170.105041 298.008361 170.105041 298.008361ZM140 304.016722 140 703.983278C140 723.905721 156.127448 740 176.026756 740L847.973244 740C867.849146 740 884 723.874288 884 703.983278L884 304.016722C884 284.094279 867.872552 268 847.973244 268L176.026756 268C156.150854 268 140 284.125712 140 304.016722L140 304.016722Z" p-id="52614"></path><path d="M173.236945 311.493591 505.448766 613.519212C511.54189 619.058688 520.844565 619.068638 526.949525 613.54221L864.62996 307.861775C871.181037 301.931505 871.684301 291.813373 865.75403 285.262296 859.823761 278.711218 849.705629 278.207955 843.154551 284.138225L505.474117 589.818659 526.974876 589.841657 194.763055 287.816036C188.224679 281.871765 178.105494 282.353383 172.161223 288.891759 166.216952 295.430135 166.698569 305.54932 173.236945 311.493591L173.236945 311.493591Z" p-id="52615"></path><path d="M372.350661 484.60071 236.772525 618.135356C230.476871 624.336119 230.399947 634.466467 236.60071 640.762121 242.801474 647.057774 252.931821 647.134699 259.227475 640.933936L394.80561 507.39929C401.101264 501.198526 401.178189 491.068179 394.977426 484.772525 388.776662 478.476871 378.646314 478.399947 372.350661 484.60071L372.350661 484.60071Z" p-id="52616"></path><path d="M636.772525 507.39929 772.350661 640.933936C778.646314 647.134699 788.776662 647.057774 794.977426 640.762121 801.178189 634.466467 801.101264 624.336119 794.80561 618.135356L659.227475 484.60071C652.931821 478.399947 642.801474 478.476871 636.60071 484.772525 630.399947 491.068179 630.476871 501.198526 636.772525 507.39929L636.772525 507.39929Z" p-id="52617"></path></svg>