<?xml version="1.0" standalone="no"?><!DOCTYPE svg PUBLIC "-//W3C//DTD SVG 1.1//EN" "http://www.w3.org/Graphics/SVG/1.1/DTD/svg11.dtd"><svg t="1587800845361" class="icon" viewBox="0 0 1024 1024" version="1.1" xmlns="http://www.w3.org/2000/svg" p-id="20606" xmlns:xlink="http://www.w3.org/1999/xlink" width="200" height="200"><defs><style type="text/css"></style></defs><path d="M870.993067 579.012267C882.244267 543.0912 888.469333 504.968533 888.469333 465.335467 888.469333 255.803733 719.598933 85.333333 512 85.333333 304.401067 85.333333 135.5264 255.803733 135.5264 465.335467 135.5264 504.968533 141.751467 543.0912 153.002667 579.012267 111.876267 611.473067 85.333333 661.888 85.333333 718.6688 85.333333 816.6144 163.985067 896 261.0176 896L286.1184 896C313.838933 896 336.315733 873.314133 336.315733 845.3376L336.315733 592C336.315733 564.023467 313.838933 541.3376 286.1184 541.3376L261.0176 541.3376C247.5648 541.3376 234.525867 542.993067 221.9264 545.885867 214.890667 520.183467 210.824533 493.265067 210.824533 465.335467 210.824533 297.710933 345.92 161.335467 512 161.335467 678.075733 161.335467 813.175467 297.710933 813.175467 465.335467 813.175467 493.265067 809.109333 520.183467 802.0736 545.885867 789.474133 542.993067 776.4352 541.3376 762.9824 541.3376L737.8816 541.3376C710.161067 541.3376 687.684267 564.023467 687.684267 592L687.684267 845.3376C687.684267 873.314133 710.161067 896 737.8816 896L762.9824 896C860.014933 896 938.666667 816.6144 938.666667 718.6688 938.666667 661.888 912.123733 611.473067 870.993067 579.012267ZM261.0176 820.002133C205.649067 820.002133 160.6272 774.5536 160.6272 718.6688 160.6272 662.784 205.649067 617.335467 261.0176 617.335467L261.0176 820.002133ZM762.9824 820.002133 762.9824 617.335467C818.350933 617.335467 863.3728 662.784 863.3728 718.6688 863.3728 774.5536 818.350933 820.002133 762.9824 820.002133Z" p-id="20607"></path></svg>