<?xml version="1.0" standalone="no"?><!DOCTYPE svg PUBLIC "-//W3C//DTD SVG 1.1//EN" "http://www.w3.org/Graphics/SVG/1.1/DTD/svg11.dtd"><svg t="1587800884868" class="icon" viewBox="0 0 1024 1024" version="1.1" xmlns="http://www.w3.org/2000/svg" p-id="21439" xmlns:xlink="http://www.w3.org/1999/xlink" width="200" height="200"><defs><style type="text/css"></style></defs><path d="M806.848 262.144v0.064l6.272 5.76a19.2 19.2 0 0 1-26.24 28.032 6044.48 6044.48 0 0 0-72.96-67.2l-3.648-3.328c-21.376-19.392-39.232-35.2-52.224-46.144a282.432 282.432 0 0 0-16.32-13.056c-1.216-0.896-2.048-1.408-1.792-1.344a14.848 14.848 0 0 0 7.296 1.472 18.944 18.944 0 0 0 18.368-18.816v153.6l-19.2-19.2h172.8V896H300.8a95.872 95.872 0 0 1-96-95.872V128.448h364.8a19.2 19.2 0 0 1 0 38.4H224l19.2-19.2v652.48a57.472 57.472 0 0 0 57.6 57.472h499.2l-19.2 19.2V301.12l19.2 19.2H627.2V147.648c0-10.688 8.576-19.456 19.264-19.648a20.672 20.672 0 0 1 9.856 2.24 51.072 51.072 0 0 1 7.872 4.928c6.4 4.736 12.544 9.664 18.56 14.848 18.048 15.36 35.84 31.04 53.376 47.04l3.648 3.328c22.464 20.48 44.864 41.024 67.072 61.76zM243.2 473.408v0.448H896v326.208H128V473.856h76.8v-0.448h38.4z m54.784 76.16h-31.36V723.2h26.496V599.168h0.96l53.312 124.032h22.848l53.248-124.032h0.96V723.2h26.496V549.568h-31.36l-60.288 139.072h-0.768l-60.544-139.072z m259.008 0H484.992V723.2h26.56v-67.584h44.992c41.6 0 62.464-17.792 62.464-53.312 0-35.2-20.672-52.736-62.016-52.736z m184.32 0h-24.32L631.488 660.48v25.024h84.608v37.696h25.344v-37.696h26.24v-21.12h-26.24V549.504z m-25.28 33.536v81.28h-62.976l62.272-81.28h0.704z m-161.216-10.88c12.864 0 22.4 2.368 28.48 7.232 6.08 4.416 9.216 12.16 9.216 22.848 0 10.752-3.2 18.56-8.96 23.36-6.144 4.864-15.616 7.296-28.736 7.296h-43.264v-60.8h43.264z" p-id="21440"></path></svg>