<?xml version="1.0" standalone="no"?><!DOCTYPE svg PUBLIC "-//W3C//DTD SVG 1.1//EN" "http://www.w3.org/Graphics/SVG/1.1/DTD/svg11.dtd"><svg t="1587801287819" class="icon" viewBox="0 0 1024 1024" version="1.1" xmlns="http://www.w3.org/2000/svg" p-id="26028" xmlns:xlink="http://www.w3.org/1999/xlink" width="200" height="200"><defs><style type="text/css"></style></defs><path d="M699.392 754.176v-57.856h-57.856c-59.392 0-107.52-48.128-107.52-107.52s48.128-107.52 107.52-107.52h57.344v-57.856c0-59.392 48.128-107.52 107.52-107.52 6.144 0 12.8 0.512 18.432 1.536V103.424c0-38.912-31.232-70.144-70.144-70.144h-372.224l-361.472 361.472v525.824c0 38.912 31.232 70.144 70.144 70.144h663.552c38.912 0 70.144-31.232 70.144-70.144v-60.416c-6.144 1.024-11.776 1.536-17.92 1.536-59.392 0-107.52-48.128-107.52-107.52z m-319.488-362.496h-264.192l264.192-264.192v264.192z" p-id="26029"></path><path d="M971.776 558.08h-134.656v-134.656c0-16.896-13.824-30.72-30.72-30.72s-30.72 13.824-30.72 30.72v134.656h-134.144c-16.896 0-30.72 13.824-30.72 30.72s13.824 30.72 30.72 30.72h134.656v134.656c0 16.896 13.824 30.72 30.72 30.72s30.72-13.824 30.72-30.72v-134.656h134.656c16.896 0 30.72-13.824 30.72-30.72s-14.336-30.72-31.232-30.72z" p-id="26030"></path></svg>