<?xml version="1.0" standalone="no"?><!DOCTYPE svg PUBLIC "-//W3C//DTD SVG 1.1//EN" "http://www.w3.org/Graphics/SVG/1.1/DTD/svg11.dtd"><svg t="1587802664929" class="icon" viewBox="0 0 1024 1024" version="1.1" xmlns="http://www.w3.org/2000/svg" p-id="36514" xmlns:xlink="http://www.w3.org/1999/xlink" width="200" height="200"><defs><style type="text/css"></style></defs><path d="M853.6 580.8h-722c-37.8 0-68.4-30.6-68.4-68.4S93.8 444 131.6 444h722c37.8 0 68.4 30.6 68.4 68.4s-30.6 68.4-68.4 68.4z" p-id="36515"></path><path d="M600.2 902.1c-16.3 0-32.7-5.8-45.8-17.6-28.1-25.3-30.3-68.5-5-96.6l248.3-275.5L549.4 237c-25.3-28.1-23-71.3 5-96.6 28.1-25.3 71.3-23 96.6 5l289.5 321.3c23.4 26 23.4 65.5 0 91.5L651 879.5c-13.5 15-32.1 22.6-50.8 22.6z" p-id="36516"></path></svg>