<?xml version="1.0" standalone="no"?><!DOCTYPE svg PUBLIC "-//W3C//DTD SVG 1.1//EN" "http://www.w3.org/Graphics/SVG/1.1/DTD/svg11.dtd"><svg t="1587802034789" class="icon" viewBox="0 0 1024 1024" version="1.1" xmlns="http://www.w3.org/2000/svg" p-id="31972" xmlns:xlink="http://www.w3.org/1999/xlink" width="200" height="200"><defs><style type="text/css"></style></defs><path d="M512 768c46.933333 0 85.333333-38.4 85.333333-85.333333s-38.4-85.333333-85.333333-85.333334-85.333333 38.4-85.333333 85.333334 38.4 85.333333 85.333333 85.333333z m-256 128h512V469.333333H256v426.666667zM768 384h-42.666667V298.666667c0-117.76-95.573333-213.333333-213.333333-213.333334S298.666667 180.906667 298.666667 298.666667h85.333333c0-70.826667 57.173333-128 128-128s128 57.173333 128 128v85.333333H256c-46.933333 0-85.333333 38.4-85.333333 85.333333v426.666667c0 46.933333 38.4 85.333333 85.333333 85.333333h512c46.933333 0 85.333333-38.4 85.333333-85.333333V469.333333c0-46.933333-38.4-85.333333-85.333333-85.333333z" p-id="31973"></path></svg>