<?xml version="1.0" standalone="no"?><!DOCTYPE svg PUBLIC "-//W3C//DTD SVG 1.1//EN" "http://www.w3.org/Graphics/SVG/1.1/DTD/svg11.dtd"><svg t="1587801869339" class="icon" viewBox="0 0 1609 1024" version="1.1" xmlns="http://www.w3.org/2000/svg" p-id="31732" xmlns:xlink="http://www.w3.org/1999/xlink" width="314.2578125" height="200"><defs><style type="text/css"></style></defs><path d="M1170.431164 373.029036H515.656775c-30.207978 0-58.733672 23.551983-73.874233 52.809106l-267.336952 522.020198H84.114226a7.31428 7.31428 0 0 1-7.460566-7.167995V74.094393H310.856921l54.564532 138.239901a38.399973 38.399973 0 0 0 35.839975 23.771412h761.70917a7.31428 7.31428 0 0 1 7.387423 7.167995v129.828478z m41.325685 648.703537c35.766832 0 77.750802-22.308555 93.037648-52.735962l297.398644-543.231612c17.773702-32.987405-8.045709-52.66282-54.637675-52.66282h-300.324357V243.200558c0-44.763397-37.81483-81.188513-84.187368-81.188514H427.812266L373.247733 23.772143A38.399973 38.399973 0 0 0 337.407759 0.000731H39.131401a39.131401 39.131401 0 0 0-27.282267 10.971421 36.425117 36.425117 0 0 0-11.117706 26.33141l0.731428 205.970139L0 940.617202c0 44.836539 37.741687 81.188513 84.114226 81.188514l1127.642623-0.146286z" p-id="31733"></path></svg>