<?xml version="1.0" standalone="no"?><!DOCTYPE svg PUBLIC "-//W3C//DTD SVG 1.1//EN" "http://www.w3.org/Graphics/SVG/1.1/DTD/svg11.dtd"><svg t="1587802224181" class="icon" viewBox="0 0 1024 1024" version="1.1" xmlns="http://www.w3.org/2000/svg" p-id="33477" xmlns:xlink="http://www.w3.org/1999/xlink" width="200" height="200"><defs><style type="text/css"></style></defs><path d="M537.6 918.912l340.4288-33.9968A76.8 76.8 0 0 0 947.2 808.4992V231.936a76.8 76.8 0 0 0-84.4288-76.416L537.6 188.0064v730.9056z m-51.2-730.88L161.2288 155.4944A76.8 76.8 0 0 0 76.8 231.9872v576.512a76.8 76.8 0 0 0 69.1712 76.4416L486.4 918.912V188.032z m28.4928 784.6144a25.856 25.856 0 0 1-5.7856 0L140.8768 935.8592A128 128 0 0 1 25.6 808.4992V231.936a128 128 0 0 1 140.7232-127.36L512 139.1104l345.6768-34.5088A128 128 0 0 1 998.4 231.936v576.512a128 128 0 0 1-115.2768 127.3856l-368.2304 36.7872z" fill="#979797" p-id="33478"></path></svg>