<?xml version="1.0" standalone="no"?><!DOCTYPE svg PUBLIC "-//W3C//DTD SVG 1.1//EN" "http://www.w3.org/Graphics/SVG/1.1/DTD/svg11.dtd"><svg t="1587799898666" class="icon" viewBox="0 0 1024 1024" version="1.1" xmlns="http://www.w3.org/2000/svg" p-id="10564" xmlns:xlink="http://www.w3.org/1999/xlink" width="200" height="200"><defs><style type="text/css"></style></defs><path d="M781.213936 110.381218 140.063115 110.381218c-17.277764 0-31.275693 13.996544-31.275693 31.274308l0 844.442729c0 17.267076 13.99793 31.275693 31.275693 31.275693l484.772553 0 187.653962-187.653962L812.48963 141.655525C812.48963 124.377762 798.481012 110.381218 781.213936 110.381218L781.213936 110.381218zM752.210435 783.208929l-142.611714 0c-17.267076 0-31.274308 14.008618-31.274308 31.275693l0 142.611714L200.343497 957.096337c-17.277764 0-31.275693-14.010003-31.275693-31.275693l0-723.885923c0-17.277764 13.99793-31.275693 31.275693-31.275693L720.936127 170.659027c17.26569 0 31.274308 13.99793 31.274308 31.275693l0 565.233879L752.210435 783.208929zM875.041016 16.554336 222.158915 16.554336c-25.89329 0-46.912055 21.001546-46.912055 46.913441l652.880518 0c17.26569 0 31.274308 13.99793 31.274308 31.275693l0 652.551961c25.770378 0 46.69691-20.827767 46.881377-46.586071l0.032064 0 0-652.87933C906.316512 30.552265 892.301362 16.554336 875.041016 16.554336L875.041016 16.554336zM642.158954 585.386314c-18.012861-12.932691-48.940996-19.909587-91.97172-20.752951-24.904253-31.035015-48.764644-67.528635-65.41419-100.020584 11.985021-21.488048 19.322736-37.395767 21.850253-47.337201 11.668141-45.768042 2.719901-78.941649-9.536477-94.729227-7.06913-9.095299-16.249933-14.102039-25.862612-14.102039-11.637463 0-38.943549 7.455284-41.59002 76.590683-0.77785 20.289012 6.332647 46.660887 21.129802 78.476523-23.069082 39.502295-54.386142 85.906472-82.010296 121.467068-24.220023 5.157757-47.262385 11.037351-66.913876 17.05193-53.194033 16.296842-57.921499 40.253425-55.992708 53.092497 2.615594 17.458272 20.163527 29.647751 42.684551 29.647751l0.008115 0.008115c10.103139 0 20.52296-2.542163 30.099418-7.37255 16.513373-8.326752 39.021137-30.250436 66.956628-65.212503 53.366427-10.739274 107.497442-17.049159 150.351616-17.531703 11.940883 14.119456 27.712429 31.218097 42.222196 42.073751 22.930138 17.109328 42.660602 25.78641 58.64195 25.78641l0.016032 0c15.05248 0 26.553572-7.776122 30.751783-20.795703C673.437221 623.51995 662.985336 600.341217 642.158954 585.386314zM305.087588 650.538648c-5.398435 2.701296-11.125626 4.14873-16.558698 4.14873-7.805613 0-12.402051-3.010061-12.92992-3.818589 0.255325-2.06239 6.96225-11.501092 35.054103-20.10593 7.995424-2.448544 16.613524-4.8864 25.666071-7.246867C318.89155 642.190322 309.188222 648.49229 305.087588 650.538648zM459.680167 386.179206c1.352627-35.377514 10.087107-46.7169 10.9277-47.756804 5.502742 2.119789 18.027706 27.640186 6.873974 71.407393-0.495805 1.911175-2.286839 7.629063-8.348128 19.970944C461.063473 408.325953 459.3621 394.568701 459.680167 386.179206zM511.764824 565.365888c-30.044593 1.569158-63.727464 5.384976-97.994415 11.084061l0.769735-0.963702-1.352627 0.271357c18.419204-25.473687 37.180621-53.589687 53.267464-79.934645l0.257898 0.479773 0.495805-0.887501c12.828384 22.872739 28.360637 46.763809 44.851051 69.022977l-1.062467 0L511.764824 565.365888zM639.349393 632.103412c-0.183082 0.073431-0.996954 0.344787-2.542163 0.344787-4.239578 0-16.707143-1.942051-40.661152-19.80528-5.231386-3.924281-11.366106-9.426826-18.043738-16.208567 27.791204 3.037968 40.734583 9.243744 46.492452 13.396432C637.574392 619.156075 639.918827 630.312379 639.349393 632.103412z" p-id="10565"></path></svg>