<?xml version="1.0" standalone="no"?><!DOCTYPE svg PUBLIC "-//W3C//DTD SVG 1.1//EN" "http://www.w3.org/Graphics/SVG/1.1/DTD/svg11.dtd"><svg t="1587808281503" class="icon" viewBox="0 0 1024 1024" version="1.1" xmlns="http://www.w3.org/2000/svg" p-id="74713" xmlns:xlink="http://www.w3.org/1999/xlink" width="200" height="200"><defs><style type="text/css"></style></defs><path d="M854.45497621 215.57770611c-5.19095892-4.69658189-12.1122375-6.92127857-19.10767225-6.22915072-1.85391429 0.22247005-192.60929512 18.51442056-301.69358957-85.97216741a24.74357128 24.74357128 0 0 0-34.33448587 0.12359388c-107.40341252 104.31355563-299.617206 86.02160511-301.56999493 85.8238543a24.69413358 24.69413358 0 0 0-27.24017495 24.57053892v185.39139033c0 401.08809325 336.86851564 486.68947826 340.27971722 487.50519999a24.07616189 24.07616189 0 0 0 11.56842353 0.02471924c3.41120158-0.81572251 340.27971723-86.44182598 340.27971723-487.50519999v-185.39139033a24.66941435 24.66941435 0 0 0-8.18194041-18.34138821z m-41.25576368 203.73277854c0 337.75839431-253.5412658 425.4361629-296.62622452 437.86974509-43.20855337-12.48302067-296.62622452-100.21022618-296.62622528-437.86974509V260.07163979c58.53424163 1.70560117 197.89912946-4.12804867 296.72510069-85.79913583 99.74056838 81.57221174 238.3391714 87.33170466 296.52734911 85.79913583v159.23884486z" p-id="74714"></path><path d="M637.07739134 408.48362745c0-70.69591684-57.52076909-128.21668593-128.24140441-128.21668593s-128.2414044 57.52076909-128.24140439 128.21668593c0 64.886987 48.62198236 118.10667506 111.23483419 126.51108477V685.03814412a24.71885205 24.71885205 0 0 0 49.43770409 0v-49.4377041h49.43770408a24.71885205 24.71885205 0 0 0 0-49.43770409h-49.43770408v-54.10956751c54.97472694-14.4852473 95.81027051-64.14542144 95.81027052-123.56954097z m-207.02038624-1e-8c0-43.45574189 35.34795842-78.80370031 78.80370031-78.8037003s78.80370031 35.34795842 78.80370108 78.8037003S552.29172882 487.28732776 508.83598693 487.28732776s-78.77898185-35.34795842-78.77898183-78.80370031z" p-id="74715"></path></svg>