<?xml version="1.0" standalone="no"?><!DOCTYPE svg PUBLIC "-//W3C//DTD SVG 1.1//EN" "http://www.w3.org/Graphics/SVG/1.1/DTD/svg11.dtd"><svg t="1587799341234" class="icon" viewBox="0 0 1024 1024" version="1.1" xmlns="http://www.w3.org/2000/svg" p-id="6263" xmlns:xlink="http://www.w3.org/1999/xlink" width="200" height="200"><defs><style type="text/css"></style></defs><path d="M615.7 408.979c0 56.7-45.9 102.6-102.6 102.6-56.7 0-102.6-45.9-102.6-102.6s45.9-102.6 102.6-102.6c56.7 0 102.6 45.9 102.6 102.6z" p-id="6264"></path><path d="M513 959.579c21.7 0 42.8-6.7 60.4-19.3 15.9-11.3 28.4-26.9 35.9-44.9l196.3-306.3v-0.3c99.7-161.8 49.3-373.7-112.4-473.4-161.8-99.7-373.7-49.3-473.4 112.4-68.3 110.9-68.2 250.9 0.4 361.6l0.3 0.5 196 306.1c7.6 17.9 20.1 33.3 35.9 44.5 17.9 12.5 39 19.2 60.6 19.1z m230.9-409.3l-200.1 311.9-1.4 3.6c-5.9 16.4-24.1 24.9-40.5 18.9-8.7-3.2-15.6-10-18.8-18.6l-1.3-3.4-199.7-311.8c-78.7-127.4-39.2-294.5 88.2-373.2 127.4-78.7 294.5-39.2 373.2 88.2 53.8 87.2 53.9 197.1 0.4 284.4z" p-id="6265"></path></svg>