<?xml version="1.0" standalone="no"?><!DOCTYPE svg PUBLIC "-//W3C//DTD SVG 1.1//EN" "http://www.w3.org/Graphics/SVG/1.1/DTD/svg11.dtd"><svg t="1587800633125" class="icon" viewBox="0 0 1024 1024" version="1.1" xmlns="http://www.w3.org/2000/svg" p-id="18124" xmlns:xlink="http://www.w3.org/1999/xlink" width="200" height="200"><defs><style type="text/css"></style></defs><path d="M858.453333 636.586667H298.666667c-17.066667 0-30.72 13.653333-30.72 30.72s13.653333 30.72 30.72 30.72h559.786666c17.066667 0 30.72-13.653333 30.72-30.72-1.706667-17.066667-13.653333-30.72-30.72-30.72zM858.453333 802.133333H298.666667c-17.066667 0-30.72 13.653333-30.72 30.72s13.653333 30.72 30.72 30.72h559.786666c17.066667 0 30.72-13.653333 30.72-30.72s-13.653333-30.72-30.72-30.72z" p-id="18125"></path><path d="M988.16 266.24L730.453333 8.533333l-8.533333-8.533333H240.64c-44.373333 0-80.213333 35.84-80.213333 80.213333v129.706667H88.746667c-34.133333 0-61.44 27.306667-61.44 61.44v177.493333c0 34.133333 27.306667 61.44 61.44 61.44h71.68v433.493334c0 44.373333 35.84 80.213333 80.213333 80.213333h675.84c44.373333 0 80.213333-35.84 80.213333-80.213333V274.773333l-8.533333-8.533333z m-836.266667 182.613333H109.226667V271.36h63.146666c39.253333 0 71.68 13.653333 71.68 58.026667 0 42.666667-32.426667 61.44-69.973333 61.44H151.893333v58.026666z m764.586667 515.413334H240.64c-10.24 0-20.48-8.533333-20.48-20.48V510.293333h363.52c34.133333 0 61.44-27.306667 61.44-61.44V271.36c0-34.133333-27.306667-61.44-61.44-61.44H220.16V80.213333c0-10.24 8.533333-20.48 20.48-20.48h438.613333v177.493334c0 44.373333 35.84 80.213333 80.213334 80.213333h177.493333v626.346667c0 10.24-10.24 20.48-20.48 20.48zM274.773333 448.853333V271.36h63.146667c39.253333 0 71.68 13.653333 71.68 58.026667 0 42.666667-32.426667 61.44-69.973333 61.44h-20.48v59.733333h-44.373334z m148.48-141.653333v-35.84H563.2V307.2h-47.786667v143.36h-42.666666V307.2h-49.493334z" p-id="18126"></path><path d="M203.093333 329.386667c0-18.773333-11.946667-23.893333-32.426666-23.893334H153.6v51.2h17.066667c22.186667 0 32.426667-10.24 32.426666-27.306666zM366.933333 329.386667c0-18.773333-11.946667-23.893333-32.426666-23.893334h-17.066667v51.2h18.773333c20.48 0 30.72-10.24 30.72-27.306666z" p-id="18127"></path></svg>