<?xml version="1.0" standalone="no"?><!DOCTYPE svg PUBLIC "-//W3C//DTD SVG 1.1//EN" "http://www.w3.org/Graphics/SVG/1.1/DTD/svg11.dtd"><svg t="1587802916589" class="icon" viewBox="0 0 1024 1024" version="1.1" xmlns="http://www.w3.org/2000/svg" p-id="39936" xmlns:xlink="http://www.w3.org/1999/xlink" width="200" height="200"><defs><style type="text/css"></style></defs><path d="M958.171429 541.257143H219.428571l285.257143 285.257143c29.257143 29.257143 29.257143 73.142857 0 95.085714-29.257143 29.257143-73.142857 29.257143-95.085714 0L21.942857 533.942857C0 512 0 490.057143 0 468.114286c0-21.942857 0-43.885714 21.942857-58.514286L409.6 21.942857c29.257143-29.257143 73.142857-29.257143 95.085714 0s29.257143 73.142857 0 95.085714L219.428571 402.285714h731.428572c36.571429 0 65.828571 29.257143 65.828571 65.828572 7.314286 36.571429-21.942857 73.142857-58.514285 73.142857z" p-id="39937"></path></svg>