<?xml version="1.0" standalone="no"?><!DOCTYPE svg PUBLIC "-//W3C//DTD SVG 1.1//EN" "http://www.w3.org/Graphics/SVG/1.1/DTD/svg11.dtd"><svg t="1587805086237" class="icon" viewBox="0 0 1024 1024" version="1.1" xmlns="http://www.w3.org/2000/svg" p-id="51863" xmlns:xlink="http://www.w3.org/1999/xlink" width="200" height="200"><defs><style type="text/css"></style></defs><path d="M804.571429 560.761905v390.095238H170.666667V560.761905H97.52381V316.952381a97.52381 97.52381 0 0 1 97.523809-97.52381h585.142857a97.52381 97.52381 0 0 1 97.52381 97.52381v243.809524h-73.142857zM170.666667 73.142857h633.904762v97.52381H170.666667V73.142857z m24.380952 390.095238a24.380952 24.380952 0 0 0 0 48.761905h585.142857a24.380952 24.380952 0 0 0 0-48.761905H195.047619z m536.380952-170.666666a48.761905 48.761905 0 1 0 0 97.523809 48.761905 48.761905 0 0 0 0-97.523809zM243.809524 658.285714v195.047619h48.761905v-195.047619h-48.761905z m73.142857 0v195.047619h48.761905v-195.047619h-48.761905z m97.523809 0v195.047619h48.761905v-195.047619h-48.761905z m97.52381 0v195.047619h48.761905v-195.047619h-48.761905z m73.142857 0v195.047619h48.761905v-195.047619h-48.761905z m97.52381 0v195.047619h48.761904v-195.047619h-48.761904z" p-id="51864"></path></svg>