<?xml version="1.0" standalone="no"?><!DOCTYPE svg PUBLIC "-//W3C//DTD SVG 1.1//EN" "http://www.w3.org/Graphics/SVG/1.1/DTD/svg11.dtd"><svg t="1587804710424" class="icon" viewBox="0 0 1024 1024" version="1.1" xmlns="http://www.w3.org/2000/svg" p-id="49993" xmlns:xlink="http://www.w3.org/1999/xlink" width="200" height="200"><defs><style type="text/css"></style></defs><path d="M304.738028 552.315194M729.544153 384.846018M595.52788 258.276345M888.202663 268.082688 763.073804 268.082688 763.073804 131.614573 282.716478 131.614573l0 136.467091L157.369655 268.081665c-21.715581 0-39.383986 17.740036-39.383986 39.45664l0 334.683549 164.730809 0 0 57.044204L465.558783 882.031615l297.515021 0L763.073804 644.137483l164.585499 0L927.659303 307.539328C927.659303 285.822724 909.992945 268.082688 888.202663 268.082688L888.202663 268.082688zM329.16537 178.063465l387.462612 0 0 90.019223L329.16537 268.082688 329.16537 178.063465 329.16537 178.063465zM808.932248 579.732637l-45.857421 0 0-91.789543-46.446845 0 0 347.792101-190.345186 0c-68.966745 0-35.773761-163.478282-35.773761-163.478282s-159.356404 38.787398-161.417343-34.228569L329.091692 487.943095l-46.375214 0 0 89.873913-46.003753 0L236.712725 421.48038l572.145845 0 0 158.251234L808.932248 579.731614zM841.980945 364.80252c-17.369599 0-31.504528-14.130835-31.504528-31.578206 0-17.369599 14.057157-31.504528 31.504528-31.504528 17.443277 0 31.577183 14.134929 31.577183 31.504528C873.558128 350.672708 859.424222 364.80252 841.980945 364.80252L841.980945 364.80252zM661.716348 494.351038 394.969075 494.351038l0 46.440705 266.74625 0L661.715325 494.351038 661.716348 494.351038zM394.969075 631.771851l266.74625 0 0-46.37419L394.969075 585.39766 394.969075 631.771851 394.969075 631.771851z" p-id="49994"></path></svg>