<?xml version="1.0" standalone="no"?><!DOCTYPE svg PUBLIC "-//W3C//DTD SVG 1.1//EN" "http://www.w3.org/Graphics/SVG/1.1/DTD/svg11.dtd"><svg t="1587798892961" class="icon" viewBox="0 0 1024 1024" version="1.1" xmlns="http://www.w3.org/2000/svg" p-id="1913" xmlns:xlink="http://www.w3.org/1999/xlink" width="200" height="200"><defs><style type="text/css"></style></defs><path d="M381.952 168.448v-51.2c0-24.576-27.136-39.424-48.128-26.112L73.216 259.072c-18.944 12.288-18.944 40.448 0.512 52.224l260.608 163.84c20.48 12.8 47.616-2.048 47.616-26.112v-37.888c0-12.8 10.24-23.552 23.552-23.552H645.12c82.944 0 150.016 67.072 150.016 150.016v93.696c0 82.944-67.072 150.016-150.016 150.016H239.616c-43.52 0-78.336 35.328-78.336 78.336 0 43.52 35.328 78.336 78.336 78.336h458.752c144.896 0 262.656-117.76 262.656-262.656V454.656c0-144.896-117.248-262.144-262.144-262.656l-293.888-0.512c-12.8 0.512-23.04-10.24-23.04-23.04z" p-id="1914"></path></svg>