<?xml version="1.0" standalone="no"?><!DOCTYPE svg PUBLIC "-//W3C//DTD SVG 1.1//EN" "http://www.w3.org/Graphics/SVG/1.1/DTD/svg11.dtd"><svg t="1587805404115" class="icon" viewBox="0 0 1024 1024" version="1.1" xmlns="http://www.w3.org/2000/svg" p-id="54100" xmlns:xlink="http://www.w3.org/1999/xlink" width="200" height="200"><defs><style type="text/css"></style></defs><path d="M1010.724137 936.437735 697.842127 576.775282l311.506686-291.427372c8.806573 8.432043 14.304797 20.048615 14.304797 32.977066l0 586.633814C1023.652588 917.076782 1018.685459 928.19398 1010.724137 936.437735zM16.304849 284.036032c8.494465-7.370875 19.642362-12.054547 32.009018-12.054547l269.12953 0c-8.244778 13.679557-13.302981 29.355585-13.302981 46.344514 0 25.545816 10.741645 48.717561 28.074406 65.454758l0 0 111.955838 108.114346 0 0c17.36346 16.740266 41.346687 27.108405 67.828828 27.108405 26.481118 0 50.464345-10.369162 67.828828-27.108405l0 0 111.924115-108.114346 0 0c17.36346-16.739243 28.106128-39.908942 28.106128-65.454758 0-16.987906-5.060249-32.664957-13.304004-46.344514l269.130553 0c12.334933 0 23.482831 4.683672 32.006971 12.054547L511.999488 657.969513 16.304849 284.036032zM545.913902 459.105303c-8.68173 8.432043-20.672832 13.616112-33.914414 13.616112-13.241582 0-25.232684-5.184069-33.914414-13.616112L366.160959 351.053378c-8.68173-8.368598-14.053064-19.923772-14.053064-32.728402 0-25.607214 21.485337-46.344514 47.967478-46.344514 13.240559 0 25.231661 5.184069 33.914414 13.616112l30.042223 28.981055L464.03201 102.223173c0-25.607214 21.485337-46.344514 47.967478-46.344514 26.481118 0 47.967478 20.736277 47.967478 46.344514l0 212.355479 30.0412-28.980032c8.68173-8.432043 20.672832-13.616112 33.915437-13.616112 26.481118 0 47.967478 20.736277 47.967478 46.344514 0 12.80463-5.371334 24.357757-14.053064 32.728402L545.913902 459.105303zM13.27484 936.437735C5.311471 928.19398 0.346389 917.076782 0.346389 904.960837L0.346389 318.327022c0-12.928451 5.465478-24.545022 14.303774-32.977066L326.15685 576.776306 13.27484 936.437735zM511.999488 750.597143l130.067334-121.667014 366.500185 309.63199c-8.587586 7.870248-20.111037 12.741185-32.881898 12.741185L48.314891 951.303304c-12.772908 0-24.296359-4.871961-32.883945-12.741185l366.501208-309.63199L511.999488 750.597143z" p-id="54101"></path></svg>