<?xml version="1.0" standalone="no"?><!DOCTYPE svg PUBLIC "-//W3C//DTD SVG 1.1//EN" "http://www.w3.org/Graphics/SVG/1.1/DTD/svg11.dtd"><svg t="1587805828808" class="icon" viewBox="0 0 1879 1024" version="1.1" xmlns="http://www.w3.org/2000/svg" p-id="61914" xmlns:xlink="http://www.w3.org/1999/xlink" width="366.9921875" height="200"><defs><style type="text/css"></style></defs><path d="M1166.206 236.763l-0.444-75.912s6.659-53.864-61.41-53.864H581.548s-45.725-1.923-45.725 43.95v657.905s4.884 53.42 57.415 53.42h133.623s27.08 4.883 27.08 33.442-25.304 29.447-25.304 29.447l-167.362-0.296s-88.638-15.981-89.082-99.884-0.444-667.376-0.444-667.376S460.948 43.95 584.805 43.95s543.075 0.888 543.075 0.888 97.665 0.74 99.292 90.71c1.776 89.97 1.48 103.14 1.48 103.14s-3.7 29.3-30.483 29.3c-26.488 0-31.815-27.377-31.963-31.224z" p-id="61915"></path><path d="M1040.573 510.816v127.26s-1.331 14.798 12.135 28.708c13.465 14.058 124.004 126.076 124.004 126.076s21.16 10.506 38.918-7.25-2.516-41.582-2.516-41.582l-102.843-108.615s-7.547-4.884-7.547-25.008-0.296-99.737-0.296-99.737-8.435-26.192-29.744-26.192c-21.16 0-31.815 17.906-32.11 26.34z" p-id="61916"></path><path d="M1101.984 361.064c-172.837 0-312.971 140.134-312.971 312.97s140.134 312.972 312.97 312.972 312.972-140.134 312.972-312.971-140.134-312.971-312.971-312.971z m0 565.271c-139.394 0-252.3-112.906-252.3-252.3s112.906-252.3 252.3-252.3 252.3 112.905 252.3 252.3-112.906 252.3-252.3 252.3zM735 484.476h-84.643c-13.613 0-24.86-11.098-24.86-24.86v-13.318c0-13.614 11.099-24.86 24.86-24.86h84.643c13.614 0 24.86 11.098 24.86 24.86v13.318c0 13.762-11.246 24.86-24.86 24.86z m315.19-188.818H650.507c-13.614 0-24.86-11.098-24.86-24.86V257.48c0-13.614 11.099-24.86 24.86-24.86h399.686c13.614 0 24.86 11.098 24.86 24.86v13.318c0 13.762-11.246 24.86-24.86 24.86z" p-id="61917"></path></svg>