<?xml version="1.0" standalone="no"?><!DOCTYPE svg PUBLIC "-//W3C//DTD SVG 1.1//EN" "http://www.w3.org/Graphics/SVG/1.1/DTD/svg11.dtd"><svg t="1587805764666" class="icon" viewBox="0 0 1024 1024" version="1.1" xmlns="http://www.w3.org/2000/svg" p-id="61792" xmlns:xlink="http://www.w3.org/1999/xlink" width="200" height="200"><defs><style type="text/css"></style></defs><path d="M569.62139 200.796619c50.863905 0 100.168639 9.943758 146.542649 29.566019a374.925593 374.925593 0 0 1 119.687388 80.727526 375.216725 375.216725 0 0 1 80.733995 119.693857c19.609323 46.38048 29.55308 95.685214 29.55308 146.52971 0 50.857435-9.943758 100.162169-29.55308 146.52971a375.44316 375.44316 0 0 1-80.733995 119.713266 375.475508 375.475508 0 0 1-119.687388 80.721056c-46.37401 19.615792-95.678744 29.55308-146.542649 29.55308-50.857435 0-100.162169-9.937288-146.53618-29.55308a375.4561 375.4561 0 0 1-119.700326-80.721056 375.365525 375.365525 0 0 1-80.727526-119.700327c-19.609323-46.38048-29.55955-95.685214-29.55955-146.542649 0-50.844496 9.950227-100.14923 29.55955-146.52971a375.197316 375.197316 0 0 1 80.727526-119.693857 375.054985 375.054985 0 0 1 119.700326-80.727526c46.37401-19.622262 95.678744-29.566019 146.53618-29.566019m0-70.156218c-246.698349 0-446.6798 199.98145-446.6798 446.67333 0 246.698349 199.98145 446.686269 446.6798 446.686269 246.68541 0 446.67333-199.98792 446.67333-446.686269 0.019409-246.69188-199.98145-446.67333-446.67333-446.67333z m0 0" fill="#15CA71" p-id="61793"></path><path d="M547.029587 555.666488h257.936024c18.994712 0 34.392333 14.847706 34.392333 33.150171v33.143702c0 18.315405-15.40409 33.150172-34.392333 33.150172H547.029587c-18.994712 0-34.392333-14.834766-34.392333-33.150172v-33.143702c0-18.302466 15.40409-33.150172 34.392333-33.150171z m0 0" fill="#15CA71" p-id="61794"></path><path d="M541.355758 273.915908h33.150171c18.302466 0 33.150172 13.663771 33.150172 30.517049v320.386962c0 16.846808-14.847706 30.517049-33.150172 30.517049h-33.150171c-18.308935 0-33.150172-13.670241-33.150172-30.517049V304.432957c0.00647-16.853278 14.841236-30.517049 33.150172-30.517049z m0 0M510.845178 0.025878c-0.097044 0-0.194088 0.025878-0.291131 0.025879V0C265.796574 0 60.975872 171.042981 9.109181 400.118171l-0.00647 0.077635a48.489566 48.489566 0 0 0 93.718459 24.862629l0.129392 0.019409c40.525502-186.31768 205.558236-326.151366 403.585871-328.021077A48.612488 48.612488 0 1 0 510.845178 0.025878z m0 0" fill="#15CA71" p-id="61795"></path></svg>