<?xml version="1.0" standalone="no"?><!DOCTYPE svg PUBLIC "-//W3C//DTD SVG 1.1//EN" "http://www.w3.org/Graphics/SVG/1.1/DTD/svg11.dtd"><svg t="1587799714581" class="icon" viewBox="0 0 1080 1024" version="1.1" xmlns="http://www.w3.org/2000/svg" p-id="10324" xmlns:xlink="http://www.w3.org/1999/xlink" width="210.9375" height="200"><defs><style type="text/css"></style></defs><path d="M249.742222 1024H34.702222c-19.114667 0-34.702222-17.635556-34.702222-39.253333V39.253333C0 17.635556 15.587556 0 34.702222 0h215.04c19.114667 0 34.702222 17.635556 34.702222 39.253333v945.493334c0 21.617778-15.587556 39.253333-34.702222 39.253333zM85.333333 227.555556v284.444444a56.888889 56.888889 0 1 0 113.777778 0V227.555556a56.888889 56.888889 0 1 0-113.777778 0z m0 682.666666h113.777778a28.444444 28.444444 0 1 0 0-56.888889h-113.777778a28.444444 28.444444 0 1 0 0 56.888889z m0-113.777778h113.777778a28.444444 28.444444 0 1 0 0-56.888888h-113.777778a28.444444 28.444444 0 1 0 0 56.888888zM1046.186667 1024h-215.04c-19.114667 0-34.702222-17.635556-34.702223-39.253333V39.253333c0-21.617778 15.587556-39.253333 34.702223-39.253333h215.04c19.114667 0 34.702222 17.635556 34.702222 39.253333v945.493334c0 21.617778-15.587556 39.253333-34.702222 39.253333z m-164.408889-113.777778h113.777778a28.444444 28.444444 0 1 0 0-56.888889h-113.777778a28.444444 28.444444 0 1 0 0 56.888889z m0-113.777778h113.777778a28.444444 28.444444 0 1 0 0-56.888888h-113.777778a28.444444 28.444444 0 1 0 0 56.888888z m0-568.888888v284.444444a56.888889 56.888889 0 0 0 113.777778 0V227.555556a56.888889 56.888889 0 0 0-113.777778 0zM647.964444 1024H432.924444c-19.114667 0-34.702222-17.635556-34.702222-39.253333V39.253333c0-21.617778 15.587556-39.253333 34.702222-39.253333h215.04c19.114667 0 34.702222 17.635556 34.702223 39.253333v945.493334c0 21.617778-15.587556 39.253333-34.702223 39.253333zM483.555556 227.555556v284.444444a56.888889 56.888889 0 1 0 113.777777 0V227.555556a56.888889 56.888889 0 0 0-113.777777 0z m0 682.666666h113.777777a28.444444 28.444444 0 1 0 0-56.888889h-113.777777a28.444444 28.444444 0 1 0 0 56.888889z m0-113.777778h113.777777a28.444444 28.444444 0 1 0 0-56.888888h-113.777777a28.444444 28.444444 0 1 0 0 56.888888z" fill="#D8D8D8" p-id="10325"></path></svg>