<?xml version="1.0" standalone="no"?><!DOCTYPE svg PUBLIC "-//W3C//DTD SVG 1.1//EN" "http://www.w3.org/Graphics/SVG/1.1/DTD/svg11.dtd"><svg t="1587802781507" class="icon" viewBox="0 0 1024 1024" version="1.1" xmlns="http://www.w3.org/2000/svg" p-id="38612" xmlns:xlink="http://www.w3.org/1999/xlink" width="200" height="200"><defs><style type="text/css"></style></defs><path d="M919.552 977.92c-38.912-206.336-235.52-363.008-453.12-363.008v198.144c0.512 9.216-2.048 16.384-9.728 23.552-14.336 14.848-36.864 8.704-48.64-2.048l-327.68-359.424c-6.144-6.144-9.728-15.36-9.216-25.6-0.512-9.216 3.072-18.432 9.216-24.576l329.728-361.472c13.312-12.8 33.792-12.8 47.616 0 7.168 7.168 10.752 17.92 9.216 27.648v194.56c272.896-0.512 495.104 220.672 495.104 493.568-0.512 68.608-14.848 136.192-42.496 198.656z" p-id="38613"></path></svg>