<?xml version="1.0" standalone="no"?><!DOCTYPE svg PUBLIC "-//W3C//DTD SVG 1.1//EN" "http://www.w3.org/Graphics/SVG/1.1/DTD/svg11.dtd"><svg t="1587802301897" class="icon" viewBox="0 0 1024 1024" version="1.1" xmlns="http://www.w3.org/2000/svg" p-id="34193" xmlns:xlink="http://www.w3.org/1999/xlink" width="200" height="200"><defs><style type="text/css"></style></defs><path d="M836.1984 65.1264a142.60224 142.60224 0 0 0-17.98144-1.1264H205.824a141.98784 141.98784 0 0 0-141.824 141.824v612.352a141.98784 141.98784 0 0 0 141.824 141.824h612.352a141.98784 141.98784 0 0 0 141.824-141.824v-612.352c0-72.0896-54.0672-131.82976-123.78112-140.6976zM456.84736 153.6h110.34624a40.96 40.96 0 0 1 40.96 40.96v286.16704a20.48 20.48 0 0 1-35.328 14.11072l-37.60128-39.56736a31.98976 31.98976 0 0 0-46.3872 0l-37.62176 39.56736a20.48 20.48 0 0 1-35.30752-14.1312V194.56a40.96 40.96 0 0 1 40.96-40.96zM329.728 281.6a28.672 28.672 0 0 1 28.672 28.672v14.336a28.672 28.672 0 0 1-28.672 28.672H156.672a28.672 28.672 0 0 1-28.672-28.672v-14.336a28.672 28.672 0 0 1 28.672-28.672h173.056z m537.6 0a28.672 28.672 0 0 1 28.672 28.672v14.336a28.672 28.672 0 0 1-28.672 28.672H694.272a28.672 28.672 0 0 1-28.672-28.672v-14.336a28.672 28.672 0 0 1 28.672-28.672h173.056z" p-id="34194"></path></svg>