<?xml version="1.0" standalone="no"?><!DOCTYPE svg PUBLIC "-//W3C//DTD SVG 1.1//EN" "http://www.w3.org/Graphics/SVG/1.1/DTD/svg11.dtd"><svg t="1587799447328" class="icon" viewBox="0 0 1024 1024" version="1.1" xmlns="http://www.w3.org/2000/svg" p-id="9332" xmlns:xlink="http://www.w3.org/1999/xlink" width="200" height="200"><defs><style type="text/css"></style></defs><path d="M945 267.5H273l-32-157c-11-46-37.37-79-81-79H27v0.025C12 32.053 0 44.372 0 59.5s12 27.447 27 27.975v0.025h133c6.285 0 9.273 1.834 12.312 5.003 3.336 3.48 9.548 12 14.021 30.185L233.949 351.5 292 657.5c9 52 35.37 79 79 79h515c43.631 0 66-28 79-79l59-311c0-43.63-35.369-79-79-79z m-289 56h164.561L793.184 466H656V323.5zM312.669 466l-23.372-123.199c1.774-10.93 11.279-19.301 22.703-19.301h66.415L405.792 466h-93.123z m45.56 211.021c-2.191-2.204-7.654-9.449-11.05-29.071l-0.077-0.444-0.083-0.442L323.293 522h93.259l30.451 158.5H371c-9.312 0-11.736-2.438-12.771-3.479zM600 680.5h-95.973L473.576 522H600v158.5z m0-214.5H462.817l-27.378-142.5H600V466z m56 56h126.424l-30.451 158.5H656V522z m254.324 123.254c-5.771 21.938-11.681 29.919-13.991 32.357-1.219 1.287-2.736 2.889-10.333 2.889h-77.004L839.448 522h94.259l-23.383 123.254zM944.331 466h-94.124l27.378-142.5H945c11.424 0 20.929 8.372 22.703 19.302L944.331 466zM905 770.5H350v0.025c-15 0.527-27 12.846-27 27.975s12 27.447 27 27.975v0.025h555c15.464 0 28-12.536 28-28s-12.536-28-28-28zM461 848.5c-39.765 0-72 32.235-72 72s32.235 72 72 72 72-32.235 72-72-32.235-72-72-72z m0 89c-9.389 0-17-7.611-17-17s7.611-17 17-17 17 7.611 17 17-7.611 17-17 17zM795 848.5c-39.765 0-72 32.235-72 72s32.235 72 72 72 72-32.235 72-72-32.235-72-72-72z m0 89c-9.389 0-17-7.611-17-17s7.611-17 17-17 17 7.611 17 17-7.611 17-17 17z" p-id="9333"></path></svg>