<?xml version="1.0" standalone="no"?><!DOCTYPE svg PUBLIC "-//W3C//DTD SVG 1.1//EN" "http://www.w3.org/Graphics/SVG/1.1/DTD/svg11.dtd"><svg t="1589273864397" class="icon" viewBox="0 0 1058 1024" version="1.1" xmlns="http://www.w3.org/2000/svg" p-id="2021" xmlns:xlink="http://www.w3.org/1999/xlink" width="16.53125" height="16"><defs><style type="text/css"></style></defs><path d="M358.4 607.573333h-81.92c-30.72 0-37.546667 6.826667-37.546667 40.96v85.333334c0 34.133333 6.826667 40.96 37.546667 40.96h81.92c30.72 0 37.546667-6.826667 37.546667-40.96V648.533333c3.413333-34.133333-3.413333-40.96-37.546667-40.96zM358.4 395.946667h-81.92c-30.72 0-37.546667 6.826667-37.546667 40.96v85.333333c0 34.133333 6.826667 40.96 37.546667 40.96h81.92c30.72 0 37.546667-6.826667 37.546667-40.96v-85.333333c3.413333-34.133333-3.413333-40.96-37.546667-40.96zM358.4 819.2h-81.92c-30.72 0-37.546667 6.826667-37.546667 40.96v85.333333c0 34.133333 6.826667 40.96 37.546667 40.96h81.92c30.72 0 37.546667-6.826667 37.546667-40.96v-85.333333c3.413333-34.133333-3.413333-40.96-37.546667-40.96z" p-id="2022"></path><path d="M1044.48 365.226667l-488.106667-351.573334c-3.413333-3.413333-6.826667-6.826667-13.653333-10.24-17.066667-6.826667-37.546667-3.413333-44.373333 13.653334l-484.693334 351.573333c-13.653333 13.653333-17.066667 37.546667-6.826666 51.2 10.24 17.066667 30.72 23.893333 47.786666 13.653333l34.133334-23.893333v576.853333c0 20.48 17.066667 37.546667 37.546666 37.546667 20.48 0 37.546667-17.066667 37.546667-37.546667v-631.466666l361.813333-262.826667 368.64 266.24 78.506667 54.613333 27.306667 17.066667c17.066667 10.24 37.546667 3.413333 47.786666-13.653333 13.653333-13.653333 13.653333-37.546667-3.413333-51.2z" p-id="2023"></path><path d="M781.653333 546.133333v75.093334h-235.52v68.266666h235.52v75.093334h78.506667v-75.093334h85.333333v-68.266666h-85.333333V546.133333z" p-id="2024"></path><path d="M716.8 727.04h-81.92v75.093333h-88.746667v68.266667h88.746667v85.333333h81.92v-75.093333h238.933333v-68.266667h-238.933333z" p-id="2025"></path></svg>