<?xml version="1.0" standalone="no"?><!DOCTYPE svg PUBLIC "-//W3C//DTD SVG 1.1//EN" "http://www.w3.org/Graphics/SVG/1.1/DTD/svg11.dtd"><svg t="1587807288487" class="icon" viewBox="0 0 1024 1024" version="1.1" xmlns="http://www.w3.org/2000/svg" p-id="70742" xmlns:xlink="http://www.w3.org/1999/xlink" width="200" height="200"><defs><style type="text/css"></style></defs><path d="M315.1 846.8c0 11.1-8.6 19.7-19.7 19.7H98.5c-11.1 0-19.7-8.6-19.7-19.7V728.6c0-11.1 8.6-19.7 19.7-19.7h196.9c11.1 0 19.7 8.6 19.7 19.7v118.2z m-19.7-216.6H98.5c-11.1 0-19.7-8.6-19.7-19.7V492.3c0-11.1 8.6-19.7 19.7-19.7h196.9c11.1 0 19.7 8.6 19.7 19.7v118.2c0 11-8.6 19.7-19.7 19.7z m334.8 216.6c0 11.1-8.6 19.7-19.7 19.7h-197c-11.1 0-19.7-8.6-19.7-19.7V728.6c0-11.1 8.6-19.7 19.7-19.7h196.9c11.1 0 19.7 8.6 19.7 19.7v118.2h0.1z m-334.8-453H98.5c-11.1 0-19.7-8.6-19.7-19.7V256c0-11.1 8.6-19.7 19.7-19.7h196.9c11.1 0 19.7 8.6 19.7 19.7v118.2c0 11-8.6 19.6-19.7 19.6z m315.1 236.4h-197c-11.1 0-19.7-8.6-19.7-19.7V492.3c0-11.1 8.6-19.7 19.7-19.7h196.9c11.1 0 19.7 8.6 19.7 19.7v118.2c0.1 11-8.6 19.7-19.6 19.7z m334.7 216.6c0 11.1-8.6 19.7-19.7 19.7H728.6c-11.1 0-19.7-8.6-19.7-19.7V728.6c0-11.1 8.6-19.7 19.7-19.7h196.9c11.1 0 19.7 8.6 19.7 19.7v118.2z m-334.7-453h-197c-11.1 0-19.7-8.6-19.7-19.7V256c0-11.1 8.6-19.7 19.7-19.7h196.9c11.1 0 19.7 8.6 19.7 19.7v118.2c0.1 11-8.6 19.6-19.6 19.6z m315 236.4H728.6c-11.1 0-19.7-8.6-19.7-19.7V492.3c0-11.1 8.6-19.7 19.7-19.7h196.9c11.1 0 19.7 8.6 19.7 19.7v118.2c0 11-8.6 19.7-19.7 19.7z m0-236.4H728.6c-11.1 0-19.7-8.6-19.7-19.7V256c0-11.1 8.6-19.7 19.7-19.7h196.9c11.1 0 19.7 8.6 19.7 19.7v118.2c0 11-8.6 19.6-19.7 19.6z m0-315h-827C44.3 78.8 0 123.1 0 177.2v669.5c0 54.2 44.3 98.5 98.5 98.5h827.1c54.2 0 98.5-44.3 98.5-98.5V177.2c-0.1-54.1-44.4-98.4-98.6-98.4z" p-id="70743"></path></svg>