<?xml version="1.0" standalone="no"?><!DOCTYPE svg PUBLIC "-//W3C//DTD SVG 1.1//EN" "http://www.w3.org/Graphics/SVG/1.1/DTD/svg11.dtd"><svg t="1587800027512" class="icon" viewBox="0 0 1024 1024" version="1.1" xmlns="http://www.w3.org/2000/svg" p-id="10804" xmlns:xlink="http://www.w3.org/1999/xlink" width="200" height="200"><defs><style type="text/css"></style></defs><path d="M704 960c-141.39 0-256-114.61-256-256 0-141.38 114.61-256 256-256 141.38 0 256 114.61 256 256S845.39 960 704 960z" fill="#EAF2FF" p-id="10805"></path><path d="M864 960.09H160c-52.93 0-96-43.07-96-96v-704c0-52.94 43.07-96 96-96h549.49c25.64 0 49.75 9.99 67.88 28.12l154.51 154.51C950.01 264.85 960 288.96 960 314.6v549.49c0 52.93-43.07 96-96 96z m-704-832c-17.65 0-32 14.35-32 32v704c0 17.64 14.35 32 32 32h704c17.64 0 32-14.36 32-32V314.6c0-8.55-3.33-16.58-9.37-22.63L732.12 137.46c-6.04-6.04-14.08-9.37-22.63-9.37H160z" fill="#BBBBBB" p-id="10806"></path><path d="M703 320H319c-17.67 0-32-14.33-32-32s14.33-32 32-32h384c17.67 0 32 14.33 32 32s-14.33 32-32 32z" fill="#BBBBBB" p-id="10807"></path><path d="M479.5 736V288c0-17.67 14.33-32 32-32s32 14.33 32 32v448c0 17.67-14.33 32-32 32s-32-14.33-32-32z" fill="#BBBBBB" p-id="10808"></path></svg>