<?xml version="1.0" standalone="no"?><!DOCTYPE svg PUBLIC "-//W3C//DTD SVG 1.1//EN" "http://www.w3.org/Graphics/SVG/1.1/DTD/svg11.dtd"><svg t="1587805890746" class="icon" viewBox="0 0 1024 1024" version="1.1" xmlns="http://www.w3.org/2000/svg" p-id="62646" xmlns:xlink="http://www.w3.org/1999/xlink" width="200" height="200"><defs><style type="text/css"></style></defs><path d="M511.82 1024a476.62 476.62 0 0 1-190.74-913.2 476.61 476.61 0 0 1 381.84 873.4 473.55 473.55 0 0 1-185 39.76c-2.03 0.04-4.07 0.04-6.1 0.04z m0.26-893h-5.25c-229.64 2.89-414.15 192-411.3 421.67 1.38 111.24 46 215.29 125.64 293C299.54 922.09 402.59 964 511.86 964h5.32c229.64-2.85 414.15-192 411.29-421.64C925.64 314.45 739.33 131 512.08 131z" fill="#111111" p-id="62647"></path><path d="M722.13 577.5H512.75a30 30 0 1 1 0-60h209.38a30 30 0 1 1 0 60z" fill="#111111" p-id="62648"></path><path d="M512.75 577.5a30 30 0 0 1-30-30V269.73a30 30 0 0 1 60 0V547.5a30 30 0 0 1-30 30zM931.35 184.4a29.91 29.91 0 0 1-21.21-8.79L786.94 52.42A30 30 0 0 1 829.37 10l123.2 123.2a30 30 0 0 1-21.21 51.21zM92.65 184.4a30 30 0 0 1-21.21-51.21L194.63 10a30 30 0 1 1 42.43 42.43l-123.2 123.2a29.91 29.91 0 0 1-21.21 8.77z" fill="#111111" p-id="62649"></path></svg>