<?xml version="1.0" standalone="no"?><!DOCTYPE svg PUBLIC "-//W3C//DTD SVG 1.1//EN" "http://www.w3.org/Graphics/SVG/1.1/DTD/svg11.dtd"><svg t="1587803073743" class="icon" viewBox="0 0 1113 1024" version="1.1" xmlns="http://www.w3.org/2000/svg" p-id="41259" xmlns:xlink="http://www.w3.org/1999/xlink" width="217.3828125" height="200"><defs><style type="text/css"></style></defs><path d="M545.87952 513.349388c-4.053995-18.011979 9.004989-37.824955 23.504972-52.234937L1014.738961 16.93198a57.909931 57.909931 0 1 1 81.865902 82.135902L672.774368 512.35939l423.829495 412.570508a57.819931 57.819931 0 0 1-40.887951 99.067882 57.729931 57.729931 0 0 1-40.887951-16.93198L569.384492 563.514329c-12.247985-14.139983-26.567968-32.151962-23.505972-50.164941z" p-id="41260"></path><path d="M24.333141 461.204451L469.596611 16.93198a57.909931 57.909931 0 1 1 81.865902 82.135902L127.723018 512.35939l423.829495 412.570508A57.819931 57.819931 0 0 1 510.664562 1023.99878a57.729931 57.729931 0 0 1-40.887952-16.93198L24.333141 563.514329C11.995156 549.374345-2.324827 531.362367 0.737169 513.349388c-4.052995-18.011979 9.275989-37.824955 23.595972-52.144937z" p-id="41261"></path></svg>