<?xml version="1.0" standalone="no"?><!DOCTYPE svg PUBLIC "-//W3C//DTD SVG 1.1//EN" "http://www.w3.org/Graphics/SVG/1.1/DTD/svg11.dtd"><svg t="1587803103359" class="icon" viewBox="0 0 1114 1024" version="1.1" xmlns="http://www.w3.org/2000/svg" p-id="42579" xmlns:xlink="http://www.w3.org/1999/xlink" width="217.578125" height="200"><defs><style type="text/css"></style></defs><path d="M567.767825 513.434398c4.051995-18.011979-9.006989-37.825956-23.506973-52.235938L99.443373 17.00998a57.909932 57.909932 0 0 0-82.136903 82.136904L441.050973 512.443399 17.30647 924.928916A57.819932 57.819932 0 0 0 58.194422 1023.9988a57.729932 57.729932 0 0 0 41.249951-17.11198L544.440852 563.59934c12.338986-14.139983 26.658969-32.152962 23.326973-50.164942z" p-id="42580"></path><path d="M1089.588213 461.288459L644.320735 17.00998a57.909932 57.909932 0 0 0-81.956904 82.136904l423.832503 413.566515L562.363831 924.928916A57.819932 57.819932 0 0 0 603.250783 1023.9988a57.729932 57.729932 0 0 0 40.887952-16.93198l445.268478-443.286481c12.247986-14.319983 27.018968-31.701963 23.505973-50.164941 4.232995-18.191979-9.005989-38.005955-23.325973-52.325939z" p-id="42581"></path></svg>