<?xml version="1.0" standalone="no"?><!DOCTYPE svg PUBLIC "-//W3C//DTD SVG 1.1//EN" "http://www.w3.org/Graphics/SVG/1.1/DTD/svg11.dtd"><svg t="1587806248389" class="icon" viewBox="0 0 1024 1024" version="1.1" xmlns="http://www.w3.org/2000/svg" p-id="67532" xmlns:xlink="http://www.w3.org/1999/xlink" width="200" height="200"><defs><style type="text/css"></style></defs><path d="M574.208 434.24H499.008L692.8 166.4H499.328L374.976 505.408h153.6l-69.824 180.096 205.888-251.264H574.208z m164.8-76.8a41.6 41.6 0 0 1 32.192 67.968l-392.96 479.36a41.6 41.6 0 0 1-70.912-41.344l109.12-281.216H324.608a41.6 41.6 0 0 1-41.6-41.6c0.384-7.296 0.384-7.296 2.56-14.336l150.144-409.408a41.6 41.6 0 0 1 39.04-27.264h286.976a41.6 41.6 0 0 1 33.728 65.984l-146.112 201.856h89.6z" p-id="67533"></path></svg>