<?xml version="1.0" standalone="no"?><!DOCTYPE svg PUBLIC "-//W3C//DTD SVG 1.1//EN" "http://www.w3.org/Graphics/SVG/1.1/DTD/svg11.dtd"><svg t="1587806228696" class="icon" viewBox="0 0 1024 1024" version="1.1" xmlns="http://www.w3.org/2000/svg" p-id="67410" xmlns:xlink="http://www.w3.org/1999/xlink" width="200" height="200"><defs><style type="text/css"></style></defs><path d="M201.9 557.8v19.6h-112c-14.3 0-25.8-11.7-25.8-26.1 0-14.4 11.6-26.1 25.8-26.1h113.7c-1.1 10.6-1.7 21.5-1.7 32.6zM279.1 352.8l-83.8-84.7c-10.1-10.2-10.1-26.7 0-36.9s26.4-10.2 36.5 0l84.4 85.3c-13.4 11-25.7 23.2-37.1 36.3zM486.4 247.9V124.6c0-14.4 11.6-26.1 25.8-26.1 14.3 0 25.8 11.7 25.8 26.1v123.3c-8.6-0.7-17.3-1.3-26.1-1.3-8.5 0-17 0.6-25.5 1.3zM830.7 873.3h-60.3V559.9c0-144.2-115.7-261.1-258.4-261.1S253.6 415.7 253.6 559.9v313.3h-60.3c-14.3 0-25.8 11.7-25.8 26.1 0 14.4 11.6 26.1 25.8 26.1h637.5c14.3 0 25.8-11.7 25.8-26.1 0-14.3-11.6-26-25.9-26z m-112 0H305.2V564.9C305.2 449.5 397.8 356 512 356c114.2 0 206.7 93.5 206.7 208.9v308.4zM749.2 357.5c-11.3-13.4-23.6-25.8-37-37.2l82.8-83.7c10.2-10.3 26.7-10.3 36.9 0s10.2 27 0 37.3l-82.7 83.6zM934.1 577.3h-112v-19.6c0-11-0.6-21.9-1.7-32.6h113.7c14.3 0 25.8 11.7 25.8 26.1 0.1 14.4-11.5 26.1-25.8 26.1z" p-id="67411"></path><path d="M435.9 608.3h155.5c13.4 0 24.3-10.9 24.3-24.3s-10.9-24.3-24.3-24.3H435.9c-13.4 0-24.3 10.9-24.3 24.3 0 13.5 10.9 24.3 24.3 24.3z" p-id="67412"></path><path d="M453 601.2l100.1-100.1c9.5-9.5 9.5-24.8 0-34.3-9.5-9.5-24.8-9.5-34.3 0L418.7 566.9c-9.5 9.5-9.5 24.8 0 34.3 9.5 9.5 24.8 9.5 34.3 0zM508.4 701.3l100.1-100.1c9.5-9.5 9.5-24.8 0-34.3-9.5-9.5-24.8-9.5-34.3 0L474.1 667c-9.5 9.5-9.5 24.8 0 34.3 9.5 9.5 24.8 9.5 34.3 0z" p-id="67413"></path></svg>