<?xml version="1.0" standalone="no"?><!DOCTYPE svg PUBLIC "-//W3C//DTD SVG 1.1//EN" "http://www.w3.org/Graphics/SVG/1.1/DTD/svg11.dtd"><svg t="1587804940618" class="icon" viewBox="0 0 1024 1024" version="1.1" xmlns="http://www.w3.org/2000/svg" p-id="50879" xmlns:xlink="http://www.w3.org/1999/xlink" width="200" height="200"><defs><style type="text/css"></style></defs><path d="M234.84 889.59h605.57c30.4 0 55.05-24.65 55.05-55.05V173.92c0-30.4-24.65-55.05-55.05-55.05H289.89c-30.4 0-55.05 24.65-55.05 55.05v715.67z m55.05-825.78h550.52c60.81 0 110.1 49.29 110.1 110.1v660.62c0 60.81-49.29 110.1-110.1 110.1H179.79V173.92c0-60.81 49.3-110.11 110.1-110.11z" fill="#333333" p-id="50880"></path><path d="M376.47 264.56v55.05h385.36v-55.05H376.47z m0-55.05h385.36c30.4 0 55.05 24.65 55.05 55.05v55.05c0 30.4-24.65 55.05-55.05 55.05H376.47c-30.4 0-55.05-24.65-55.05-55.05v-55.05c0-30.4 24.65-55.05 55.05-55.05zM183.79 870.13V539.82c-30.4 0-55.05 24.65-55.05 55.05v220.21c0 30.4 24.64 55.05 55.05 55.05z m0-385.36h55.05v440.41h-55.05c-60.81 0-110.1-49.29-110.1-110.1V594.87c0-60.8 49.29-110.1 110.1-110.1z m165.15 55.05c-15.2 0-27.53-12.32-27.53-27.53 0-15.2 12.32-27.53 27.53-27.53h440.41c15.2 0 27.53 12.32 27.53 27.53 0 15.2-12.32 27.53-27.53 27.53H348.94z m-13.05 165.16c-7.99 0-14.47-12.32-14.47-27.53 0-15.2 6.48-27.53 14.47-27.53h231.58c7.99 0 14.47 12.32 14.47 27.53 0 15.2-6.48 27.53-14.47 27.53H335.89z m315.69-142.32h24.7c-0.79 18.82-1.18 39.61-1.18 62.35 10.97 0 23.53-0.39 37.64-1.18v22.35c-14.91-0.77-27.46-1.18-37.64-1.18v50.58c11.76-4.71 23.53-9.8 35.29-15.29 0.77 4.71 1.95 11.38 3.53 20-8.64 3.14-21.58 8.64-38.82 16.47v82.34c0 13.33-2.76 21.95-8.23 25.88-5.5 3.91-17.26 7.44-35.29 10.59-1.58-10.2-5.11-19.61-10.59-28.23 13.33 0 21.95-0.4 25.88-1.18 3.91-0.77 5.88-5.88 5.88-15.29v-65.88c-18.82 7.85-31.38 13.34-37.64 16.47-3.14-7.83-6.67-15.68-10.59-23.53 7.06-0.77 23.12-5.48 48.23-14.12V645c-19.61 0-34.52 0.4-44.7 1.18v-22.35c10.18 0.79 25.09 1.18 44.7 1.18 0.01-21.18-0.4-41.95-1.17-62.35z m214.09 31.76c-45.49 6.29-83.52 10.99-114.11 14.12v49.41h89.4c9.41 0 21.17-0.39 35.29-1.18v22.35c-19.61-0.77-36.87-1.18-51.76-1.18v61.17c25.88 15.7 43.52 27.06 52.94 34.11-5.5 7.06-10.2 14.52-14.12 22.35-14.12-12.54-27.06-22.35-38.82-29.41v28.23c0 15.68 0.39 29 1.18 40h-24.7c0.77-11.76 1.18-25.11 1.18-40v-41.17c-7.85-4.7-21.58-12.53-41.17-23.53 3.91-6.27 7.44-13.33 10.59-21.17 12.54 7.06 22.74 12.94 30.58 17.64v-48.23h-50.58c0 32.17-2.17 59.81-6.47 82.93-4.32 23.14-15.11 46.85-32.35 71.17-6.29-6.29-13.73-11.38-22.35-15.29 10.97-11.76 19.41-25.09 25.29-40 5.88-14.89 9.8-31.17 11.76-48.82 1.95-17.64 2.94-40.97 2.94-69.99 0-29-0.4-51.35-1.18-67.05 23.53-0.77 48.23-3.71 74.11-8.82 25.88-5.09 41.17-9.21 45.88-12.35 3.92 8.65 9.41 16.88 16.47 24.71z" fill="#333333" p-id="50881"></path></svg>