<?xml version="1.0" standalone="no"?><!DOCTYPE svg PUBLIC "-//W3C//DTD SVG 1.1//EN" "http://www.w3.org/Graphics/SVG/1.1/DTD/svg11.dtd"><svg t="1587803400987" class="icon" viewBox="0 0 1024 1024" version="1.1" xmlns="http://www.w3.org/2000/svg" p-id="43545" xmlns:xlink="http://www.w3.org/1999/xlink" width="200" height="200"><defs><style type="text/css"></style></defs><path d="M442.181818 162.909091l0 186.181818 0 46.545455 46.545455 0 116.363636 0c183.854545 0 337.454545 144.290909 349.090909 325.818182-62.836364-60.509091-151.272727-93.090909-256-93.090909l-209.454545 0-46.545455 0 0 46.545455 0 190.836364L88.436364 512 442.181818 162.909091M488.727273 46.545455 23.272727 512l465.454545 465.454545L488.727273 674.909091l209.454545 0c132.654545 0 244.363636 62.836364 286.254545 181.527273 11.636364-34.909091 16.290909-72.145455 16.290909-111.709091l0 0c0-216.436364-176.872727-395.636364-395.636364-395.636364l-116.363636 0L488.727273 46.545455 488.727273 46.545455z" p-id="43546"></path></svg>