<?xml version="1.0" standalone="no"?><!DOCTYPE svg PUBLIC "-//W3C//DTD SVG 1.1//EN" "http://www.w3.org/Graphics/SVG/1.1/DTD/svg11.dtd"><svg t="1587800807462" class="icon" viewBox="0 0 1024 1024" version="1.1" xmlns="http://www.w3.org/2000/svg" p-id="19760" xmlns:xlink="http://www.w3.org/1999/xlink" width="200" height="200"><defs><style type="text/css"></style></defs><path d="M-34.13333333-34.13333333L1058.13333333-34.13333333-34.13333333-34.13333333Z" p-id="19761"></path><path d="M-34.13333333 993.8944L1058.13333333 993.8944-34.13333333 993.8944Z" p-id="19762"></path><path d="M-34.13333333 929.5872L1058.13333333 929.5872-34.13333333 929.5872Z" p-id="19763"></path><path d="M-34.13333333 865.34826667L1058.13333333 865.34826667-34.13333333 865.34826667Z" p-id="19764"></path><path d="M-34.13333333 801.04106667L1058.13333333 801.04106667-34.13333333 801.04106667Z" p-id="19765"></path><path d="M-34.13333333 736.80213333L1058.13333333 736.80213333-34.13333333 736.80213333Z" p-id="19766"></path><path d="M-34.13333333 672.5632L1058.13333333 672.5632-34.13333333 672.5632Z" p-id="19767"></path><path d="M-34.13333333 608.256L1058.13333333 608.256-34.13333333 608.256Z" p-id="19768"></path><path d="M-34.13333333 544.01706667L1058.13333333 544.01706667-34.13333333 544.01706667Z" p-id="19769"></path><path d="M-34.13333333 479.98293333L1058.13333333 479.98293333-34.13333333 479.98293333Z" p-id="19770"></path><path d="M-34.13333333 415.744L1058.13333333 415.744-34.13333333 415.744Z" p-id="19771"></path><path d="M-34.13333333 351.4368L1058.13333333 351.4368-34.13333333 351.4368Z" p-id="19772"></path><path d="M-34.13333333 287.19786667L1058.13333333 287.19786667-34.13333333 287.19786667Z" p-id="19773"></path><path d="M-34.13333333 222.95893333L1058.13333333 222.95893333-34.13333333 222.95893333Z" p-id="19774"></path><path d="M-34.13333333 158.65173333L1058.13333333 158.65173333-34.13333333 158.65173333Z" p-id="19775"></path><path d="M-34.13333333 94.4128L1058.13333333 94.4128-34.13333333 94.4128Z" p-id="19776"></path><path d="M-34.13333333 30.1056L1058.13333333 30.1056-34.13333333 30.1056Z" p-id="19777"></path><path d="M-34.13333333 1058.13333333L1058.13333333 1058.13333333-34.13333333 1058.13333333Z" p-id="19778"></path><path d="M-34.13333333-34.13333333L-34.13333333 1058.13333333-34.13333333-34.13333333Z" p-id="19779"></path><path d="M993.8944-34.13333333L993.8944 1058.13333333 993.8944-34.13333333Z" p-id="19780"></path><path d="M929.5872-34.13333333L929.5872 1058.13333333 929.5872-34.13333333Z" p-id="19781"></path><path d="M865.34826667-34.13333333L865.34826667 1058.13333333 865.34826667-34.13333333Z" p-id="19782"></path><path d="M801.04106667-34.13333333L801.04106667 1058.13333333 801.04106667-34.13333333Z" p-id="19783"></path><path d="M736.80213333-34.13333333L736.80213333 1058.13333333 736.80213333-34.13333333Z" p-id="19784"></path><path d="M672.5632-34.13333333L672.5632 1058.13333333 672.5632-34.13333333Z" p-id="19785"></path><path d="M608.256-34.13333333L608.256 1058.13333333 608.256-34.13333333Z" p-id="19786"></path><path d="M544.01706667-34.13333333L544.01706667 1058.13333333 544.01706667-34.13333333Z" p-id="19787"></path><path d="M479.98293333-34.13333333L479.98293333 1058.13333333 479.98293333-34.13333333Z" p-id="19788"></path><path d="M415.744-34.13333333L415.744 1058.13333333 415.744-34.13333333Z" p-id="19789"></path><path d="M351.4368-34.13333333L351.4368 1058.13333333 351.4368-34.13333333Z" p-id="19790"></path><path d="M287.19786667-34.13333333L287.19786667 1058.13333333 287.19786667-34.13333333Z" p-id="19791"></path><path d="M222.95893333-34.13333333L222.95893333 1058.13333333 222.95893333-34.13333333Z" p-id="19792"></path><path d="M158.65173333-34.13333333L158.65173333 1058.13333333 158.65173333-34.13333333Z" p-id="19793"></path><path d="M94.4128-34.13333333L94.4128 1058.13333333 94.4128-34.13333333Z" p-id="19794"></path><path d="M30.1056-34.13333333L30.1056 1058.13333333 30.1056-34.13333333Z" p-id="19795"></path><path d="M1058.13333333-34.13333333L1058.13333333 1058.13333333 1058.13333333-34.13333333Z" p-id="19796"></path><path d="M955.8016 207.39413333L68.26666667 207.39413333C49.42506667 207.39413333 34.13333333 222.75413333 34.13333333 241.80053333l0 540.39893334c0 19.0464 15.29173333 34.54293333 34.13333334 34.54293333l887.53493333 0c18.70506667 0 34.06506667-15.49653333 34.06506667-34.54293333L989.86666667 241.80053333C989.86666667 222.75413333 974.50666667 207.39413333 955.8016 207.39413333zM469.33333333 248.49066667l85.26506667 0 0 86.08426666L469.33333333 334.57493333 469.33333333 248.49066667 469.33333333 248.49066667zM209.44213333 773.3248l-85.33333333 0 0-86.016 85.33333333 0L209.44213333 773.3248zM209.44213333 334.57493333l-85.33333333 0L124.1088 248.49066667l85.33333333 0L209.44213333 334.57493333zM382.08853333 773.3248L296.82346667 773.3248l0-86.016 85.26506666 0L382.08853333 773.3248zM382.08853333 334.57493333L296.82346667 334.57493333 296.82346667 248.49066667l85.26506666 0L382.08853333 334.57493333zM554.5984 773.3248L469.33333333 773.3248l0-86.016 85.26506667 0L554.5984 773.3248zM421.00053333 618.01813333L421.00053333 405.98186667 603.06773333 512 421.00053333 618.01813333zM727.2448 773.3248L641.97973333 773.3248l0-86.016 85.26506667 0L727.2448 773.3248zM727.2448 334.57493333L641.97973333 334.57493333 641.97973333 248.49066667l85.26506667 0L727.2448 334.57493333zM899.8912 773.3248l-85.26506667 0 0-86.016 85.26506667 0L899.8912 773.3248zM899.8912 334.57493333l-85.26506667 0L814.62613333 248.49066667l85.26506667 0L899.8912 334.57493333z" p-id="19797"></path></svg>