<?xml version="1.0" standalone="no"?><!DOCTYPE svg PUBLIC "-//W3C//DTD SVG 1.1//EN" "http://www.w3.org/Graphics/SVG/1.1/DTD/svg11.dtd"><svg t="1587800383706" class="icon" viewBox="0 0 1024 1024" version="1.1" xmlns="http://www.w3.org/2000/svg" p-id="15177" xmlns:xlink="http://www.w3.org/1999/xlink" width="200" height="200"><defs><style type="text/css"></style></defs><path d="M912.286316 172.727579H572.077474V103.813053L80.842105 190.4v643.203368l491.237053 86.585264v-72.448H912.286316c17.050947 0 30.873263-13.822316 30.873263-30.871579V203.599158c0-17.050947-13.822316-30.873263-30.871579-30.873263z m-246.816 367.427368l-93.389474 0.001685v-157.642106h82.413474l89.096421 89.094737v149.945263h-60.449684V557.827368c-0.117895-10.314105-8.308211-17.552842-17.670737-17.670736z m21.333895-175.311158L761.263158 290.383158l74.458947 74.458947-74.458947 74.458948-74.458947-74.458948z m-114.725053 210.654316l75.722105-0.001684v130.762105h-75.722105V575.494737zM328.227368 650.711579l-60.079157-1.768421-70.681264-272.122947 53.010527-3.535158 48.594526 206.743579 50.359579-213.810527 59.196632-2.650947-80.400843 287.144421z m354.913685 73.214316v-67.031579H761.263158c9.758316 0 17.670737-7.912421 17.670737-17.670737v-167.612632l94.275368-94.275368c7.690105-8.277895 6.164211-18.684632 0-24.990316l-99.449263-99.449263c-6.901895-6.900211-18.088421-6.898526-24.990316 0l-94.273684 94.275368h-82.415158V216.904421h325.135158v583.124211H572.079158v-58.430316h93.392842c10.000842-0.207158 17.512421-7.599158 17.670737-17.670737z" fill="#82AAFF" p-id="15178"></path></svg>