<?xml version="1.0" standalone="no"?><!DOCTYPE svg PUBLIC "-//W3C//DTD SVG 1.1//EN" "http://www.w3.org/Graphics/SVG/1.1/DTD/svg11.dtd"><svg t="1587799965563" class="icon" viewBox="0 0 1024 1024" version="1.1" xmlns="http://www.w3.org/2000/svg" p-id="10684" xmlns:xlink="http://www.w3.org/1999/xlink" width="200" height="200"><defs><style type="text/css"></style></defs><path d="M285.479279 524.865074l466.160091 0 0-43.513951L285.479279 481.351123 285.479279 524.865074zM813.048126 3.092791 225.857762 3.092791c-59.188709 0-107.146828 47.294142-107.146828 105.63353l0 809.685976c0 58.314947 47.95812 105.587703 107.146828 105.587703l587.190364 0c59.165286 0 107.14581-47.272756 107.14581-105.587703L920.193936 108.726321C920.193936 50.387951 872.212394 3.092791 813.048126 3.092791zM839.514556 940.63925 199.36791 940.63925 199.36791 87.828341l640.146645 0L839.514556 940.63925zM285.479279 629.283688l466.160091 0 0-43.488492L285.479279 585.795196 285.479279 629.283688zM751.63937 230.719972l-169.517945 0 0 43.536355 169.517945 0L751.63937 230.719972zM751.63937 335.16099l-169.517945 0 0 43.513951 169.517945 0L751.63937 335.16099zM275.075606 245.981272c2.223103 2.796445 5.087779 8.546165 8.570606 17.230828l55.037831 135.466692 22.1353 0 42.38967-105.587703 42.940608 105.587703 22.478491 0 54.466525-135.466692c3.597903-8.935182 6.392311-14.686939 8.387299-17.254251 1.994988-2.566294 4.651916-4.650898 8.021704-6.25585 3.34331-1.557088 7.698881-2.47464 13.013756-2.7496l0-15.39878L480.269104 221.55362l0 15.39878 6.876037 0c7.332267 0 12.372183 1.030591 15.09836 3.047983 2.728214 2.015355 4.104033 4.742551 4.104033 8.156129 0 1.488858-0.206729 2.88708-0.573343 4.238458-0.117113 0.733227-1.168071 3.850459-3.163059 9.349659l-37.670541 101.875743-38.564671-100.409289c-2.589716-6.484983-3.894249-11.549339-3.894249-15.237877 0-4.284284 1.719009-7.401516 5.201836-9.348641 1.992951-1.122244 6.392311-1.672164 13.219467-1.672164l7.266073 0 0-15.39878-85.471832 0 0 15.39878c6.576636 0.366613 11.549339 1.78724 14.893668 4.260862 5.087779 3.804632 9.578792 10.65521 13.429251 20.600616l3.482827 8.661241-37.57787 93.146271-38.588093-100.409289c-2.864676-7.584823-4.285303-13.106428-4.285303-16.521024 0-3.666134 1.857508-6.345466 5.567431-8.065494 2.384005-1.122244 7.21821-1.672164 14.550477-1.672164l5.959504 0 0-15.39878-85.723369 0 0 15.39878c4.952335 0 9.075717 0.82488 12.375238 2.406409C270.080499 240.939319 272.831118 243.139 275.075606 245.981272zM285.479279 733.725724l466.160091 0 0-43.513951L285.479279 690.211773 285.479279 733.725724z" p-id="10685"></path></svg>