<?xml version="1.0" standalone="no"?><!DOCTYPE svg PUBLIC "-//W3C//DTD SVG 1.1//EN" "http://www.w3.org/Graphics/SVG/1.1/DTD/svg11.dtd"><svg t="1587800176736" class="icon" viewBox="0 0 1024 1024" version="1.1" xmlns="http://www.w3.org/2000/svg" p-id="12327" xmlns:xlink="http://www.w3.org/1999/xlink" width="200" height="200"><defs><style type="text/css"></style></defs><path d="M216.064 67.072c-40.96 0-74.24 33.28-74.24 74.24v745.472c0 40.96 33.28 74.24 74.24 74.24h583.168c40.96 0 74.24-33.28 74.24-74.24V280.064L660.48 67.072H216.064z m0 0" fill="#3285EA" p-id="12328"></path><path d="M662.528 69.12v138.752c0 40.96 33.28 74.24 74.24 74.24H875.52l-212.992-212.992z m0 0" fill="#3353C4" p-id="12329"></path><path d="M260.608 373.76h78.848l48.64 279.04L445.44 373.76h126.464l51.712 278.016c7.168-46.592 47.616-278.016 47.616-278.016h83.456l-84.48 428.544h-83.456l-57.856-238.08c-7.68-33.792-13.824-66.048-19.968-98.304h-3.072c-5.632 32.768-12.8 64.512-19.968 98.304l-56.32 238.08H348.672L260.608 373.76z" fill="#FFFFFF" p-id="12330"></path></svg>