<?xml version="1.0" standalone="no"?><!DOCTYPE svg PUBLIC "-//W3C//DTD SVG 1.1//EN" "http://www.w3.org/Graphics/SVG/1.1/DTD/svg11.dtd"><svg t="1587802552637" class="icon" viewBox="0 0 1024 1024" version="1.1" xmlns="http://www.w3.org/2000/svg" p-id="35778" xmlns:xlink="http://www.w3.org/1999/xlink" width="200" height="200"><defs><style type="text/css"></style></defs><path d="M172.8 684.8c-16 0-28.8-9.6-32-25.6-6.4-25.6-9.6-54.4-9.6-83.2 0-153.6 89.6-288 230.4-348.8 16-6.4 35.2 0 41.6 16 6.4 16 0 35.2-16 41.6-115.2 51.2-192 163.2-192 291.2 0 22.4 3.2 48 6.4 70.4 3.2 16-6.4 35.2-25.6 38.4h-3.2zM512 953.6c-70.4 0-140.8-19.2-201.6-57.6-16-9.6-19.2-28.8-9.6-44.8 9.6-16 28.8-19.2 44.8-9.6 102.4 64 233.6 64 336 0 16-9.6 35.2-6.4 44.8 9.6 9.6 16 6.4 35.2-9.6 44.8-64 38.4-134.4 57.6-204.8 57.6zM848 688h-6.4c-16-3.2-28.8-22.4-22.4-38.4 35.2-150.4-38.4-304-182.4-364.8-16-6.4-22.4-25.6-16-41.6s25.6-22.4 41.6-16c169.6 73.6 262.4 256 217.6 438.4-3.2 12.8-16 22.4-32 22.4z" fill="#595959" p-id="35779"></path><path d="M512 396.8c-92.8 0-169.6-76.8-169.6-169.6s76.8-169.6 169.6-169.6 169.6 76.8 169.6 169.6c0 96-76.8 169.6-169.6 169.6z m0-272c-57.6 0-105.6 48-105.6 105.6s48 105.6 105.6 105.6 105.6-48 105.6-105.6-48-105.6-105.6-105.6zM204.8 963.2c-92.8 0-169.6-76.8-169.6-169.6s76.8-169.6 169.6-169.6 169.6 76.8 169.6 169.6-76.8 169.6-169.6 169.6z m0-272c-57.6 0-105.6 48-105.6 105.6s48 105.6 105.6 105.6 105.6-48 105.6-105.6-48-105.6-105.6-105.6zM819.2 963.2c-92.8 0-169.6-76.8-169.6-169.6s76.8-169.6 169.6-169.6 169.6 76.8 169.6 169.6-76.8 169.6-169.6 169.6z m0-272c-57.6 0-105.6 48-105.6 105.6s48 105.6 105.6 105.6 105.6-48 105.6-105.6-48-105.6-105.6-105.6z" fill="#595959" p-id="35780"></path></svg>