<?xml version="1.0" standalone="no"?><!DOCTYPE svg PUBLIC "-//W3C//DTD SVG 1.1//EN" "http://www.w3.org/Graphics/SVG/1.1/DTD/svg11.dtd"><svg t="1587875960107" class="icon" viewBox="0 0 1024 1024" version="1.1" xmlns="http://www.w3.org/2000/svg" p-id="75791" xmlns:xlink="http://www.w3.org/1999/xlink" width="200" height="200"><defs><style type="text/css"></style></defs><path d="M514.378 416.998c-103.487 0-187.535-82.791-187.535-185.025 0-102.229 84.048-185.021 187.535-185.021 103.489 0 187.53 82.793 187.53 185.021 0 102.234-84.041 185.025-187.53 185.025z m0-332.415c-82.791 0-149.899 65.857-149.899 147.39 0 81.541 67.108 147.393 149.899 147.393 82.789 0 149.9-65.852 149.9-147.393 0-81.533-67.111-147.39-149.9-147.39zM198.897 951.377c-66.484 0-127.949-34.498-161.192-90.949C13.243 818.41 6.349 770.111 18.89 723.073c12.542-47.669 43.904-87.179 87.182-111.642 28.222-15.682 60.211-24.462 92.826-24.462 66.481 0 127.945 34.497 161.188 90.942 24.462 42.023 31.363 90.319 18.815 137.357-12.543 47.67-43.903 87.182-87.18 111.643-28.223 16.31-60.839 24.466-92.824 24.466z m-0.626-326.15c-25.715 0-51.43 6.901-74.012 19.449-34.496 19.441-58.957 50.797-68.992 88.433-10.033 37.003-4.388 75.261 15.055 108.503 26.342 44.533 75.892 72.133 128.576 72.133 25.716 0 51.433-6.9 74.008-19.447 34.495-19.441 58.958-50.805 68.993-88.434 10.034-37.005 4.392-75.268-15.056-107.878-25.715-44.53-75.26-72.759-128.572-72.759z m631.587 326.15c-32.614 0-64.6-8.156-92.827-24.465-43.276-24.461-74.633-63.973-87.181-111.643-12.542-46.411-5.641-95.334 18.82-137.357 33.237-55.819 94.703-90.942 161.188-90.942 32.616 0 64.6 8.155 92.828 24.462 43.277 24.463 74.634 63.973 87.181 111.642 12.542 46.413 5.642 95.337-18.815 137.354-33.242 56.451-94.707 90.949-161.194 90.949z m0.627-326.15c-53.312 0-102.234 27.601-128.577 72.133-19.441 33.236-25.088 71.499-15.049 107.875 10.035 37.632 34.495 68.993 68.993 88.437 22.576 12.546 48.291 19.441 74.006 19.441 53.312 0 102.234-27.597 128.577-72.126 19.443-33.243 25.09-71.5 15.055-107.878-10.039-37.636-34.496-68.991-68.992-88.433-22.581-12.548-48.298-19.449-74.013-19.449z m0 0M877.528 578.189c-9.412 0-17.561-7.527-18.818-16.935-8.781-97.841-60.213-187.528-142.374-245.86-8.781-6.275-10.661-17.561-4.388-26.342 6.27-8.781 17.563-10.662 26.343-4.394 90.942 64.604 148.646 163.7 158.054 272.836 0.625 10.662-6.9 19.442-16.936 20.694h-1.881z m-363.15 389.493c-54.566 0-107.249-11.293-157.426-33.241-9.408-4.392-13.801-15.056-9.408-25.09 4.389-9.407 15.049-13.8 25.089-9.407 45.159 20.07 92.822 30.105 141.745 30.105 50.178 0 99.723-10.664 146.139-31.986 9.408-4.392 20.696 0 25.085 9.406 4.392 9.41 0 20.696-9.408 25.09-51.427 23.205-105.997 35.123-161.816 35.123zM151.854 573.17h-1.88c-10.035-1.253-17.562-10.033-16.935-20.696 10.662-107.251 68.365-205.097 157.427-268.442 8.781-6.273 20.069-3.76 26.343 4.393 6.272 8.781 3.766 20.07-4.389 26.342-80.285 57.701-132.343 145.507-142.378 241.47-0.625 10.036-8.78 16.933-18.188 16.933z m0 0" p-id="75792"></path><path d="M904.402 670.611l-25.045-14.063c-6.421-3.077-13.524-3.219-19.785-0.962-6.257 2.258-11.945 6.983-15.054 13.471l-98.462 161.524 18.837 53.525 53.359-18.78 98.208-159.909c6.213-12.998 0.752-28.666-12.058-34.806zM800.701 843.62l-19.725 6.941-7.011-19.92 93.864-150.211s0.163 0.079 0.21 0.062l0.074-0.025 24.893 14.169-92.305 148.984z m0 0" p-id="75793"></path></svg>